<?xml version="1.0" encoding="utf-8"?>
<!-- Generator: Adobe Illustrator 19.2.1, SVG Export Plug-In . SVG Version: 6.00 Build 0)  -->
<svg version="1.1" id="Calque_2" xmlns="http://www.w3.org/2000/svg" xmlns:xlink="http://www.w3.org/1999/xlink" x="0px" y="0px"
	 viewBox="0 0 159.5 156.8" style="enable-background:new 0 0 159.5 156.8;" xml:space="preserve">
<style type="text/css">
	.st0{fill:#F6A83C;}
	.st1{clip-path:url(#SVGID_2_);}
	.st2{clip-path:url(#SVGID_4_);}
	.st3{opacity:0.8;}
	.st4{clip-path:url(#SVGID_6_);fill:#F6A83C;}
	.st5{clip-path:url(#SVGID_8_);fill:#FFFFFF;}
	.st6{clip-path:url(#SVGID_10_);}
	.st7{clip-path:url(#SVGID_12_);fill:#FFFFFF;}
</style>
<rect x="-11" y="-13.1" class="st0" width="185" height="182.9"/>
<g>
	<g>
		<g>
			<defs>
				<rect id="SVGID_1_" x="29.9" y="26.3" width="102.2" height="102.2"/>
			</defs>
			<clipPath id="SVGID_2_">
				<use xlink:href="#SVGID_1_"  style="overflow:visible;"/>
			</clipPath>
			<g class="st1">
				<g>
					<g>
						<defs>
							<rect id="SVGID_3_" x="29.9" y="26.3" width="102.2" height="102.2"/>
						</defs>
						<clipPath id="SVGID_4_">
							<use xlink:href="#SVGID_3_"  style="overflow:visible;"/>
						</clipPath>
						<g class="st2">
							<g>
								<g class="st3">
									<g>
										<defs>
											<rect id="SVGID_5_" x="21.9" y="20.1" width="118.2" height="109.3"/>
										</defs>
										<clipPath id="SVGID_6_">
											<use xlink:href="#SVGID_5_"  style="overflow:visible;"/>
										</clipPath>
										<path class="st4" d="M81,128.5c28.2,0,51.1-22.9,51.1-51.1S109.2,26.3,81,26.3S29.9,49.2,29.9,77.4S52.8,128.5,81,128.5"
											/>
									</g>
								</g>
							</g>
						</g>
						<g class="st2">
							<g>
								<defs>
									<rect id="SVGID_7_" x="29.9" y="26.3" width="102.2" height="102.2"/>
								</defs>
								<clipPath id="SVGID_8_">
									<use xlink:href="#SVGID_7_"  style="overflow:visible;"/>
								</clipPath>
								<path class="st5" d="M98.4,95.7H63.6V60.9h34.8C98.4,60.9,98.4,95.7,98.4,95.7z M61.1,98.1h39.7V58.4H61.1V98.1z"/>
							</g>
							<g>
								<g>
									<defs>
										<rect id="SVGID_9_" x="29.9" y="26.3" width="102.2" height="102.2"/>
									</defs>
									<clipPath id="SVGID_10_">
										<use xlink:href="#SVGID_9_"  style="overflow:visible;"/>
									</clipPath>
									<g class="st6">
										<g>
											<g>
												<defs>
													<rect id="SVGID_11_" x="29.9" y="26.3" width="102.2" height="102.2"/>
												</defs>
												<clipPath id="SVGID_12_">
													<use xlink:href="#SVGID_11_"  style="overflow:visible;"/>
												</clipPath>
												<path class="st7" d="M72.2,82.9l-1.4,5.2c0,0.1-0.1,0.2-0.3,0.2H68c-0.2,0-0.2-0.1-0.2-0.3l4.9-17.3
													c0.1-0.3,0.1-0.6,0.2-1.4c0-0.1,0.1-0.2,0.1-0.2h3.6c0.1,0,0.2,0,0.2,0.2L82.3,88c0,0.1,0,0.2-0.1,0.2h-2.9
													c-0.1,0-0.2-0.1-0.3-0.2l-1.4-5.2L72.2,82.9L72.2,82.9z M77.1,80.1C76.6,78.2,75.4,74,75,72l0,0c-0.4,2-1.3,5.5-2,8.2
													L77.1,80.1L77.1,80.1z M86.4,81.9c0,2.3,1.1,3.9,3.8,3.9c1,0,1.9-0.1,2.8-0.5c0.1-0.1,0.2,0,0.2,0.1v2.2
													c0,0.2-0.1,0.3-0.2,0.3c-0.9,0.5-2.1,0.7-3.5,0.7c-4.6,0-6.3-3.4-6.3-7.2c0-4.1,2.1-7.5,5.8-7.5c3.8,0,5.1,3.2,5.1,5.8
													c0,0.8-0.1,1.5-0.1,1.8c0,0.1-0.1,0.2-0.2,0.2c-0.3,0.1-1.4,0.1-2.9,0.1L86.4,81.9L86.4,81.9z M89.9,79.5
													c0.9,0,1.2,0,1.3,0c0-0.1,0-0.2,0-0.3c0-0.9-0.4-2.7-2.2-2.7c-1.7,0-2.4,1.5-2.5,3H89.9z"/>
											</g>
										</g>
									</g>
								</g>
							</g>
						</g>
					</g>
				</g>
			</g>
		</g>
	</g>
</g>
</svg>
