<?xml version="1.0" encoding="utf-8"?>
<!-- Generator: Adobe Illustrator 19.2.1, SVG Export Plug-In . SVG Version: 6.00 Build 0)  -->
<svg version="1.1" id="Calque_3" xmlns="http://www.w3.org/2000/svg" xmlns:xlink="http://www.w3.org/1999/xlink" x="0px" y="0px"
	 viewBox="0 0 159.5 156.8" style="enable-background:new 0 0 159.5 156.8;" xml:space="preserve">
<style type="text/css">
	.st0{fill:#D46548;}
	.st1{clip-path:url(#SVGID_2_);}
	.st2{clip-path:url(#SVGID_4_);}
	.st3{opacity:0.7;}
	.st4{clip-path:url(#SVGID_6_);fill:#D46548;}
	.st5{clip-path:url(#SVGID_8_);fill:#FFFFFF;}
	.st6{clip-path:url(#SVGID_10_);}
	.st7{clip-path:url(#SVGID_16_);}
	.st8{clip-path:url(#SVGID_17_);}
	.st9{clip-path:url(#SVGID_18_);}
	.st10{clip-path:url(#SVGID_19_);}
	.st11{clip-path:url(#SVGID_20_);fill:#FFFFFF;}
</style>
<rect x="-17" y="-22.1" class="st0" width="196" height="191"/>
<g>
	<g>
		<g>
			<defs>
				<rect id="SVGID_1_" x="29.8" y="26.4" width="102" height="102"/>
			</defs>
			<clipPath id="SVGID_2_">
				<use xlink:href="#SVGID_1_"  style="overflow:visible;"/>
			</clipPath>
			<g class="st1">
				<g>
					<g>
						<defs>
							<rect id="SVGID_3_" x="29.8" y="26.4" width="102" height="102"/>
						</defs>
						<clipPath id="SVGID_4_">
							<use xlink:href="#SVGID_3_"  style="overflow:visible;"/>
						</clipPath>
						<g class="st2">
							<g>
								<g class="st3">
									<g>
										<defs>
											<rect id="SVGID_5_" x="21.8" y="20.2" width="118" height="109.1"/>
										</defs>
										<clipPath id="SVGID_6_">
											<use xlink:href="#SVGID_5_"  style="overflow:visible;"/>
										</clipPath>
										<path class="st4" d="M80.8,128.4c28.2,0,51-22.8,51-51s-22.8-51-51-51s-51,22.8-51,51C29.8,105.5,52.6,128.4,80.8,128.4"
											/>
									</g>
								</g>
							</g>
						</g>
						<g class="st2">
							<g>
								<defs>
									<rect id="SVGID_7_" x="29.8" y="26.4" width="102" height="102"/>
								</defs>
								<clipPath id="SVGID_8_">
									<use xlink:href="#SVGID_7_"  style="overflow:visible;"/>
								</clipPath>
								<path class="st5" d="M98.1,95.6H63.4V60.9h34.7C98.1,60.9,98.1,95.6,98.1,95.6z M60.9,98.1h39.7V58.4H60.9V98.1z"/>
							</g>
							<g>
								<g>
									<defs>
										<rect id="SVGID_9_" x="29.8" y="26.4" width="102" height="102"/>
									</defs>
									<clipPath id="SVGID_10_">
										<use xlink:href="#SVGID_9_"  style="overflow:visible;"/>
									</clipPath>
									<g class="st6">
										<g>
											<g>
												<defs>
													<rect id="SVGID_11_" x="29.8" y="26.4" width="102" height="102"/>
												</defs>
												<defs>
													<rect id="SVGID_12_" x="29.8" y="26.4" width="102" height="102"/>
												</defs>
												<defs>
													<rect id="SVGID_13_" x="29.8" y="26.4" width="102" height="102"/>
												</defs>
												<defs>
													<rect id="SVGID_14_" x="29.8" y="26.4" width="102" height="102"/>
												</defs>
												<defs>
													<rect id="SVGID_15_" x="29.8" y="26.4" width="102" height="102"/>
												</defs>
												<clipPath id="SVGID_16_">
													<use xlink:href="#SVGID_11_"  style="overflow:visible;"/>
												</clipPath>
												<clipPath id="SVGID_17_" class="st7">
													<use xlink:href="#SVGID_12_"  style="overflow:visible;"/>
												</clipPath>
												<clipPath id="SVGID_18_" class="st8">
													<use xlink:href="#SVGID_13_"  style="overflow:visible;"/>
												</clipPath>
												<clipPath id="SVGID_19_" class="st9">
													<use xlink:href="#SVGID_14_"  style="overflow:visible;"/>
												</clipPath>
												<clipPath id="SVGID_20_" class="st10">
													<use xlink:href="#SVGID_15_"  style="overflow:visible;"/>
												</clipPath>
												<path class="st11" d="M76.8,79.8c-0.5-1.9-1.7-5.9-2.2-7.9l0,0c-0.4,1.9-1.4,5.2-2.1,7.9H76.8z M71.9,82.7l-1.5,5.1
													c0,0.2-0.1,0.2-0.2,0.2h-2.5c-0.2,0-0.2-0.1-0.2-0.3c1.3-4.5,3.5-11.9,5.1-16.9c0.1-0.3,0.1-0.6,0.2-1.6
													c0-0.1,0.1-0.2,0.1-0.2h3.4c0.1,0,0.1,0,0.2,0.1c1.8,6,3.8,12.5,5.6,18.6c0,0.2,0,0.3-0.1,0.3h-2.7
													c-0.1,0-0.2-0.1-0.2-0.2l-1.6-5.1H71.9z"/>
												<path class="st11" d="M93.8,85.1c0,0.2,0,0.8,0.1,1.8c0,0.1,0,0.2-0.1,0.2c-1.5,0.6-3.2,1.2-5.3,1.2c-2.6,0-5-1-5-4.9
													v-9c0-0.1,0.1-0.2,0.2-0.2h2.7c0.1,0,0.2,0.1,0.2,0.2v8.7c0,1.7,0.6,2.6,2.4,2.6c0.7,0,1.3-0.1,1.8-0.3V74.3
													c0-0.1,0.1-0.2,0.2-0.2h2.7c0.2,0,0.2,0.1,0.2,0.2L93.8,85.1L93.8,85.1z"/>
											</g>
										</g>
									</g>
								</g>
							</g>
						</g>
					</g>
				</g>
			</g>
		</g>
	</g>
</g>
</svg>
