<?xml version="1.0" encoding="utf-8"?>
<!-- Generator: Adobe Illustrator 19.2.1, SVG Export Plug-In . SVG Version: 6.00 Build 0)  -->
<svg version="1.1" id="Calque_2" xmlns="http://www.w3.org/2000/svg" xmlns:xlink="http://www.w3.org/1999/xlink" x="0px" y="0px"
	 viewBox="0 0 159.5 156.8" style="enable-background:new 0 0 159.5 156.8;" xml:space="preserve">
<style type="text/css">
	.st0{fill:#72C3BF;}
	.st1{fill:#FFFFFF;}
</style>
<rect x="-11" y="-23.1" class="st0" width="180.5" height="195"/>
<g>
	<path class="st1" d="M58.3,95c0,3.1,2.5,5.5,5.5,5.5h31.9c3.1,0,5.5-2.5,5.5-5.5V63c0-3.1-2.5-5.5-5.5-5.5H63.9
		c-3.1,0-5.5,2.5-5.5,5.5V95z"/>
	<path class="st0" d="M76.2,76.5v-6.1h5.4c0.5,0,1,0,1.5,0.1s0.9,0.2,1.3,0.5c0.4,0.2,0.7,0.5,0.9,0.9c0.2,0.4,0.3,0.9,0.3,1.5
		c0,1.1-0.3,1.9-1,2.4c-0.7,0.5-1.5,0.7-2.5,0.7H76.2L76.2,76.5z M70.4,66v26h12.6c1.2,0,2.3-0.1,3.4-0.4c1.1-0.3,2.1-0.7,3-1.3
		c0.9-0.6,1.5-1.4,2.1-2.4c0.5-1,0.8-2.1,0.8-3.4c0-1.6-0.4-3-1.2-4.2c-0.8-1.2-2-2-3.6-2.4c1.2-0.6,2-1.3,2.6-2.2
		c0.6-0.9,0.9-2,0.9-3.3c0-1.2-0.2-2.2-0.6-3.1s-1-1.5-1.7-2c-0.7-0.5-1.6-0.9-2.6-1.1c-1-0.2-2.2-0.3-3.4-0.3H70.4L70.4,66z
		 M76.2,87.6v-7.1h6.2c1.2,0,2.2,0.3,3,0.9c0.8,0.6,1.1,1.5,1.1,2.9c0,0.7-0.1,1.2-0.3,1.7c-0.2,0.4-0.5,0.8-0.9,1
		c-0.4,0.3-0.8,0.4-1.3,0.5s-1,0.2-1.6,0.2H76.2L76.2,87.6z"/>
</g>
</svg>
