<?xml version="1.0" encoding="utf-8"?>
<!-- Generator: Adobe Illustrator 19.2.1, SVG Export Plug-In . SVG Version: 6.00 Build 0)  -->
<svg version="1.1" id="Calque_3" xmlns="http://www.w3.org/2000/svg" xmlns:xlink="http://www.w3.org/1999/xlink" x="0px" y="0px"
	 viewBox="0 0 159.5 156.8" style="enable-background:new 0 0 159.5 156.8;" xml:space="preserve">
<style type="text/css">
	.st0{fill:#ABCF83;}
	.st1{clip-path:url(#SVGID_2_);fill:#ABCF83;}
	.st2{fill:#FFFFFF;}
</style>
<rect x="-11.2" y="-19.1" class="st0" width="185.7" height="187"/>
<g>
	<g>
		<g>
			<defs>
				<rect id="SVGID_1_" x="-11.2" y="26.3" width="182.9" height="102.2"/>
			</defs>
			<clipPath id="SVGID_2_">
				<use xlink:href="#SVGID_1_"  style="overflow:visible;"/>
			</clipPath>
			<path class="st1" d="M80.3,128.5c28.2,0,51.1-22.9,51.1-51.1s-22.9-51.1-51.1-51.1S29.2,49.2,29.2,77.4S52.1,128.5,80.3,128.5"/>
		</g>
	</g>
</g>
<g>
	<path class="st2" d="M59.5,84.3C58.4,83.8,57.6,83,57,82s-0.9-2.2-0.9-3.5c0-1.8,0.3-3.5,1-4.9s1.6-2.5,2.8-3.3s2.5-1.2,3.9-1.2
		c1.3,0,2.4,0.3,3.1,1c0.7,0.7,1,1.6,1,2.7c0,0.8-0.1,1.4-0.4,1.8c-0.3,0.5-0.7,0.7-1.2,0.7c-0.3,0-0.6-0.1-0.8-0.2
		c-0.2-0.2-0.3-0.4-0.3-0.7c0-0.1,0-0.3,0.1-0.6c0.1-0.4,0.1-0.7,0.1-0.9c0-1.1-0.6-1.7-1.8-1.7c-0.8,0-1.6,0.3-2.4,0.8
		c-0.7,0.5-1.4,1.3-1.8,2.4c-0.5,1-0.7,2.3-0.7,3.7c0,1.5,0.4,2.7,1.3,3.5c0.8,0.8,2.1,1.2,3.7,1.2c0.8,0,1.6-0.1,2.5-0.3
		C67,82.3,68,82,69,81.6c0.2-0.1,0.3-0.1,0.5-0.1s0.3,0.1,0.4,0.2S70,82,70,82.3c0,0.8-0.4,1.3-1.2,1.7c-0.9,0.4-1.8,0.7-2.8,0.9
		c-1,0.2-1.9,0.3-2.7,0.3C61.8,85.1,60.6,84.8,59.5,84.3z"/>
	<path class="st2" d="M71,84.8c-0.2-0.2-0.3-0.6-0.3-1.2c0-0.4,0-0.9,0.1-1.5s0.2-1.4,0.4-2.5c0.3-2,0.6-3.7,0.8-5.1
		c0.1-0.9,0.2-1.6,0.2-2.2s-0.2-0.8-0.6-0.8c-0.3,0-0.7,0.2-1.2,0.5s-1,0.9-1.5,1.6c-0.2,0.2-0.4,0.4-0.6,0.4s-0.3-0.1-0.5-0.3
		c-0.1-0.2-0.2-0.4-0.2-0.6s0-0.4,0.1-0.6s0.2-0.4,0.4-0.7c0.6-0.8,1.3-1.5,2-1.9c0.7-0.5,1.5-0.7,2.2-0.7s1.2,0.2,1.6,0.7
		c0.4,0.4,0.6,1.1,0.6,1.9c0,0.3,0,0.7-0.1,1.2s-0.1,0.8-0.2,1.1c-0.1,0.3-0.1,0.5-0.1,0.6c0.7-2,1.5-3.5,2.4-4.3s1.9-1.2,2.9-1.2
		c0.8,0,1.5,0.3,1.9,0.9s0.7,1.4,0.7,2.4c0,0.4-0.1,0.9-0.2,1.5c0.6-1.7,1.4-3,2.2-3.7c0.8-0.7,1.8-1.1,2.9-1.1c0.9,0,1.5,0.3,2,0.8
		c0.5,0.6,0.7,1.3,0.7,2.4c0,0.5-0.1,1.2-0.2,2l-1.1,5.4c-0.1,0.6-0.2,1.2-0.2,1.6c0,0.5,0.1,0.9,0.4,1.2c0.2,0.3,0.6,0.4,1,0.4
		s0.8-0.1,1.2-0.4c0.4-0.3,0.9-0.7,1.4-1.4c0.2-0.2,0.3-0.3,0.5-0.3s0.3,0.1,0.4,0.2s0.1,0.4,0.1,0.6c0,0.5-0.1,0.9-0.4,1.2
		c-0.6,0.8-1.3,1.4-1.9,1.7c-0.6,0.4-1.3,0.5-2,0.5c-1.1,0-1.9-0.3-2.5-0.9s-0.9-1.5-0.9-2.5c0-0.7,0.1-1.8,0.4-3.2l0.7-3.4
		c0-0.1,0.1-0.3,0.1-0.6c0.1-0.3,0.1-0.6,0.1-0.8s0.1-0.5,0.1-0.8c0-0.4-0.1-0.8-0.3-1c-0.2-0.2-0.4-0.3-0.7-0.3
		c-0.6,0-1.2,0.4-1.8,1.1c-0.6,0.8-1.3,2-1.8,3.8s-1.1,4-1.4,6.8c-0.1,0.7-0.2,1.3-0.5,1.5c-0.2,0.3-0.6,0.4-1.1,0.4
		c-0.4,0-0.7-0.1-0.9-0.3c-0.2-0.2-0.3-0.6-0.3-1.1s0.1-1.2,0.2-2s0.3-1.8,0.5-2.9c0.6-3,0.9-5,0.9-5.8c0-0.5-0.1-0.8-0.3-1
		c-0.2-0.2-0.5-0.3-0.8-0.3c-0.6,0-1.2,0.3-1.9,1c-0.6,0.7-1.3,1.9-1.9,3.7c-0.6,1.8-1.1,4.2-1.5,7.2c-0.1,0.6-0.2,1.1-0.4,1.3
		c-0.2,0.2-0.5,0.4-1,0.4C71.6,85.1,71.2,85,71,84.8z"/>
	<path class="st2" d="M92.9,84.2c-1-0.6-1.5-1.6-1.5-2.9c0-0.7,0.1-1.2,0.4-1.6c0.2-0.4,0.6-0.5,1-0.5c0.3,0,0.6,0.1,0.8,0.3
		c0.2,0.2,0.3,0.4,0.3,0.7c0,0.2,0,0.5-0.1,0.7c0,0,0,0.1,0,0.3s0,0.3,0,0.4c0,0.6,0.3,1,0.9,1.3s1.4,0.4,2.4,0.4
		c1.1,0,1.9-0.2,2.5-0.6s0.9-0.9,0.9-1.6c0-0.4-0.1-0.8-0.4-1.1c-0.3-0.3-0.6-0.6-1-0.8c-0.4-0.2-1-0.5-1.7-0.8
		c-1-0.4-1.7-0.7-2.4-1.1c-0.6-0.3-1.1-0.8-1.6-1.4c-0.4-0.6-0.6-1.3-0.6-2.2c0-0.9,0.2-1.7,0.7-2.4c0.5-0.7,1.2-1.2,2.1-1.6
		s2-0.6,3.2-0.6c0.9,0,1.7,0.1,2.5,0.4s1.4,0.7,1.8,1.2c0.5,0.5,0.7,1.2,0.7,2s-0.1,1.4-0.4,1.8c-0.2,0.4-0.6,0.6-1,0.6
		c-0.3,0-0.6-0.1-0.8-0.3c-0.2-0.2-0.3-0.4-0.3-0.7c0-0.2,0-0.5,0.1-0.7c0-0.4,0.1-0.6,0.1-0.7c0-0.5-0.3-0.9-0.8-1.2
		c-0.5-0.3-1.1-0.4-1.9-0.4c-1.1,0-1.9,0.2-2.5,0.6s-0.9,0.9-0.9,1.7c0,0.5,0.1,0.9,0.4,1.2c0.3,0.3,0.7,0.6,1.1,0.8
		c0.4,0.2,1,0.5,1.8,0.8c0.9,0.4,1.7,0.7,2.3,1c0.6,0.3,1.1,0.7,1.5,1.3c0.4,0.5,0.6,1.2,0.6,2c0,1.5-0.6,2.6-1.7,3.4
		s-2.6,1.2-4.5,1.2C95.2,85.2,93.9,84.8,92.9,84.2z"/>
</g>
</svg>
