<?xml version="1.0" encoding="utf-8"?>
<!-- Generator: Adobe Illustrator 19.2.1, SVG Export Plug-In . SVG Version: 6.00 Build 0)  -->
<svg version="1.1" id="Calque_3" xmlns="http://www.w3.org/2000/svg" xmlns:xlink="http://www.w3.org/1999/xlink" x="0px" y="0px"
	 viewBox="0 0 159.5 156.8" style="enable-background:new 0 0 159.5 156.8;" xml:space="preserve">
<style type="text/css">
	.st0{fill:#F6A83C;}
	.st1{clip-path:url(#SVGID_2_);}
	.st2{clip-path:url(#SVGID_4_);}
	.st3{opacity:0.8;}
	.st4{clip-path:url(#SVGID_6_);fill:#F6A83C;}
	.st5{clip-path:url(#SVGID_8_);fill:#FFFFFF;}
	.st6{clip-path:url(#SVGID_10_);}
	.st7{clip-path:url(#SVGID_12_);}
	.st8{clip-path:url(#SVGID_14_);fill:#F6A83C;}
	.st9{clip-path:url(#SVGID_16_);fill:#FFFFFF;}
	.st10{clip-path:url(#SVGID_18_);fill:#FFFFFF;}
	.st11{clip-path:url(#SVGID_20_);fill:#FFFFFF;}
</style>
<rect x="-10.5" y="-16.5" class="st0" width="182.5" height="185.9"/>
<g>
	<g>
		<g>
			<defs>
				<rect id="SVGID_1_" x="29.1" y="27.3" width="101.9" height="101.9"/>
			</defs>
			<clipPath id="SVGID_2_">
				<use xlink:href="#SVGID_1_"  style="overflow:visible;"/>
			</clipPath>
			<g class="st1">
				<g>
					<g>
						<defs>
							<rect id="SVGID_3_" x="29.1" y="27.3" width="101.9" height="101.9"/>
						</defs>
						<clipPath id="SVGID_4_">
							<use xlink:href="#SVGID_3_"  style="overflow:visible;"/>
						</clipPath>
						<g class="st2">
							<g>
								<g class="st3">
									<g>
										<defs>
											<rect id="SVGID_5_" x="21.1" y="21.1" width="117.9" height="109"/>
										</defs>
										<clipPath id="SVGID_6_">
											<use xlink:href="#SVGID_5_"  style="overflow:visible;"/>
										</clipPath>
										<path class="st4" d="M80,129.2c28.1,0,51-22.8,51-51c0-28.1-22.8-51-51-51S29,50,29,78.2C29.1,106.4,51.9,129.2,80,129.2"
											/>
									</g>
								</g>
							</g>
						</g>
						<g class="st2">
							<g>
								<defs>
									<rect id="SVGID_7_" x="29.1" y="27.3" width="101.9" height="101.9"/>
								</defs>
								<clipPath id="SVGID_8_">
									<use xlink:href="#SVGID_7_"  style="overflow:visible;"/>
								</clipPath>
								<polygon class="st5" points="67.6,97.1 64.9,66.1 95.2,66.1 92.5,97.1 80,100.5 								"/>
							</g>
							<g>
								<g>
									<defs>
										<rect id="SVGID_9_" x="29.1" y="27.3" width="101.9" height="101.9"/>
									</defs>
									<clipPath id="SVGID_10_">
										<use xlink:href="#SVGID_9_"  style="overflow:visible;"/>
									</clipPath>
									<g class="st6">
										<g>
											<g>
												<defs>
													<rect id="SVGID_11_" x="29.1" y="27.3" width="101.9" height="101.9"/>
												</defs>
												<clipPath id="SVGID_12_">
													<use xlink:href="#SVGID_11_"  style="overflow:visible;"/>
												</clipPath>
												<g class="st7">
													<g>
														<g class="st3">
															<g>
																<defs>
																	<rect id="SVGID_13_" x="61.8" y="66" width="36.5" height="29.1"/>
																</defs>
																<clipPath id="SVGID_14_">
																	<use xlink:href="#SVGID_13_"  style="overflow:visible;"/>
																</clipPath>
																<polygon class="st8" points="70.2,75.8 69.8,72.2 90.3,72.2 90.1,76.3 81.4,80.2 89.7,80.2 88.8,92 80.4,94.2 
																	71.7,92.1 71.2,86.1 75,86.1 75.3,89.3 80.3,90.2 84.9,88.8 85.1,83.7 70.9,83.7 70.6,80 80,75.8 																
																	"/>
															</g>
														</g>
													</g>
												</g>
												<g class="st7">
													<g>
														<defs>
															<rect id="SVGID_15_" x="29.1" y="27.3" width="101.9" height="101.9"/>
														</defs>
														<clipPath id="SVGID_16_">
															<use xlink:href="#SVGID_15_"  style="overflow:visible;"/>
														</clipPath>
														<polygon class="st9" points="82.9,59.1 82.9,57.7 77.2,57.7 77.2,61 81.1,61 81.1,62.1 77.1,62.1 77.1,63.4 
															82.8,63.4 82.8,59.9 78.7,59.9 78.7,59.1 														"/>
													</g>
													<g>
														<g>
															<defs>
																<rect id="SVGID_17_" x="29.1" y="27.3" width="101.9" height="101.9"/>
															</defs>
															<clipPath id="SVGID_18_">
																<use xlink:href="#SVGID_17_"  style="overflow:visible;"/>
															</clipPath>
															<polygon class="st10" points="72.5,61 72.5,62.1 76.6,62.1 76.6,63.4 70.9,63.4 70.9,60 70.9,57.7 76.5,57.7 
																76.5,59.1 72.5,59.1 															"/>
														</g>
														<g>
															<g>
																<defs>
																	<rect id="SVGID_19_" x="29.1" y="27.3" width="101.9" height="101.9"/>
																</defs>
																<clipPath id="SVGID_20_">
																	<use xlink:href="#SVGID_19_"  style="overflow:visible;"/>
																</clipPath>
																<polygon class="st11" points="89.2,59.1 89.2,57.7 83.5,57.7 83.5,61 87.4,61 87.4,62.1 83.4,62.1 83.4,63.4 
																	89.1,63.4 89.1,59.9 85,59.9 85,59.1 																"/>
															</g>
														</g>
													</g>
												</g>
											</g>
										</g>
									</g>
								</g>
							</g>
						</g>
					</g>
				</g>
			</g>
		</g>
	</g>
</g>
</svg>
