<?xml version="1.0" encoding="utf-8"?>
<!-- Generator: Adobe Illustrator 19.2.1, SVG Export Plug-In . SVG Version: 6.00 Build 0)  -->
<svg version="1.1" id="Calque_2" xmlns="http://www.w3.org/2000/svg" xmlns:xlink="http://www.w3.org/1999/xlink" x="0px" y="0px"
	 viewBox="0 0 159.5 156.8" style="enable-background:new 0 0 159.5 156.8;" xml:space="preserve">
<style type="text/css">
	.st0{fill:#2E6674;}
	.st1{clip-path:url(#SVGID_2_);}
	.st2{clip-path:url(#SVGID_4_);}
	.st3{opacity:0.6;}
	.st4{clip-path:url(#SVGID_6_);fill:#2E6674;}
	.st5{clip-path:url(#SVGID_8_);}
	.st6{clip-path:url(#SVGID_10_);fill:#FFFFFF;}
</style>
<rect x="-12" y="-14.1" class="st0" width="193" height="186"/>
<g>
	<g>
		<g>
			<defs>
				<rect id="SVGID_1_" x="29.8" y="26.5" width="101.8" height="101.8"/>
			</defs>
			<clipPath id="SVGID_2_">
				<use xlink:href="#SVGID_1_"  style="overflow:visible;"/>
			</clipPath>
			<g class="st1">
				<g>
					<g>
						<defs>
							<rect id="SVGID_3_" x="29.8" y="26.5" width="101.8" height="101.8"/>
						</defs>
						<clipPath id="SVGID_4_">
							<use xlink:href="#SVGID_3_"  style="overflow:visible;"/>
						</clipPath>
						<g class="st2">
							<g>
								<g class="st3">
									<g>
										<defs>
											<rect id="SVGID_5_" x="21.8" y="20.3" width="117.8" height="109"/>
										</defs>
										<clipPath id="SVGID_6_">
											<use xlink:href="#SVGID_5_"  style="overflow:visible;"/>
										</clipPath>
										<path class="st4" d="M80.7,128.4c28.1,0,50.9-22.8,50.9-50.9s-22.8-50.9-50.9-50.9S29.8,49.3,29.8,77.4
											C29.8,105.6,52.6,128.4,80.7,128.4"/>
									</g>
								</g>
							</g>
						</g>
						<g class="st2">
							<g>
								<defs>
									<rect id="SVGID_7_" x="29.8" y="26.5" width="101.8" height="101.8"/>
								</defs>
								<clipPath id="SVGID_8_">
									<use xlink:href="#SVGID_7_"  style="overflow:visible;"/>
								</clipPath>
								<g class="st5">
									<g>
										<g>
											<defs>
												<rect id="SVGID_9_" x="37.5" y="52.2" width="86.4" height="59.9"/>
											</defs>
											<clipPath id="SVGID_10_">
												<use xlink:href="#SVGID_9_"  style="overflow:visible;"/>
											</clipPath>
											<path class="st6" d="M68.2,96.7l-2.8-16l32-5.6l2.8,16L68.2,96.7z M66.4,67l-1.6,4.7l-1.2,0.4l-1.3-3.6L66.4,67z
												 M94.2,61.1l-4.1,1.5l1.6-4.7l1.2-0.4L94.2,61.1z M87.2,70.6l4.9-0.9l-2.4,4.4L84.8,75L87.2,70.6z M79.4,72l4.9-0.9
												l-2.4,4.4L77,76.3L79.4,72z M71.5,73.3l4.9-0.9L74,76.8l-4.9,0.9L71.5,73.3z M88.9,58.9l-1.6,4.7l-4.7,1.7l1.6-4.7
												L88.9,58.9z M81.4,61.6l-1.6,4.7L75.1,68l1.6-4.7L81.4,61.6z M73.9,64.3L72.3,69l-4.7,1.7l1.6-4.7L73.9,64.3z M64.3,74.6
												l4.3-0.8l-2.4,4.4L65,78.4L64.3,74.6z M97,72.8l-4.3,0.8l2.4-4.4l1.2-0.2L97,72.8z M102.7,91.8l-3.2-18.3l0,0l-1.1-6.1
												c-0.1-0.4-0.3-0.6-0.6-0.8c-0.2-0.1-0.5-0.2-0.8-0.1l-21.3,3.7L96,62.8c0.6-0.2,0.9-0.9,0.7-1.5l-2.1-5.8
												c-0.1-0.3-0.3-0.5-0.6-0.7c-0.3-0.1-0.6-0.1-0.9,0l-32.7,12c-0.6,0.2-0.9,0.9-0.7,1.5l2.1,5.7l1.1,6l3.2,18.3
												c0.1,0.3,0.2,0.6,0.5,0.7c0.2,0.1,0.4,0.2,0.7,0.2c0.1,0,0.1,0,0.2,0l34.3-6c0.3-0.1,0.6-0.2,0.7-0.5
												C102.7,92.4,102.7,92.1,102.7,91.8"/>
										</g>
									</g>
								</g>
							</g>
						</g>
					</g>
				</g>
			</g>
		</g>
	</g>
</g>
</svg>
