<?xml version="1.0" encoding="utf-8"?>
<!-- Generator: Adobe Illustrator 19.2.1, SVG Export Plug-In . SVG Version: 6.00 Build 0)  -->
<svg version="1.1" id="Calque_3" xmlns="http://www.w3.org/2000/svg" xmlns:xlink="http://www.w3.org/1999/xlink" x="0px" y="0px"
	 viewBox="0 0 159.5 156.8" style="enable-background:new 0 0 159.5 156.8;" xml:space="preserve">
<style type="text/css">
	.st0{fill:#ABCF83;}
	.st1{clip-path:url(#SVGID_2_);fill:#ABCF83;}
	.st2{fill:#FFFFFF;}
</style>
<rect x="-11.2" y="-19.1" class="st0" width="185.7" height="187"/>
<g>
	<g>
		<g>
			<g>
				<defs>
					<rect id="SVGID_1_" x="-11.2" y="26.3" width="182.9" height="102.2"/>
				</defs>
				<clipPath id="SVGID_2_">
					<use xlink:href="#SVGID_1_"  style="overflow:visible;"/>
				</clipPath>
				<path class="st1" d="M80.3,128.5c28.2,0,51.1-22.9,51.1-51.1s-22.9-51.1-51.1-51.1S29.2,49.2,29.2,77.4S52.1,128.5,80.3,128.5"
					/>
			</g>
		</g>
	</g>
</g>
<g>
	<path class="st2" d="M83.9,51.9c-1,0-1.9,0.4-2.7,1.2c-0.7,0.8-1.1,1.8-1.1,2.9c0,1.1,0.4,2,1.1,2.8c0.7,0.8,1.6,1.2,2.7,1.2
		c1,0,1.9-0.4,2.6-1.2c0.7-0.8,1.1-1.7,1.1-2.8c0-1.1-0.4-2.1-1.1-2.9C85.8,52.3,84.9,51.9,83.9,51.9L83.9,51.9z M83.9,51.9"/>
	<path class="st2" d="M99.8,83.1c-1.6,0-2.4-1.2-2.4-3.6v-9.6h5v-6h-5c0-0.8-0.1-2.6-0.1-3.4h-5.8v3.4h-3.2v6h3.2v9.3
		c0,3,0.4,5.3,1.1,6.7c1,1.9,2.8,2.8,5.4,2.8c1.9,0,3.5-0.4,4.8-1.1v-5.4C101.9,82.8,101,83.1,99.8,83.1L99.8,83.1z M99.8,83.1"/>
	<path class="st2" d="M80.5,64c-2.1,0.8-4.1,1.2-5.8,1.2c-1.5-0.9-3.1-1.3-4.9-1.3c-2.5,0-4.6,0.8-6.3,2.4c-1.8,1.7-2.8,3.9-2.8,6.5
		c0,1.7,0.5,3.4,1.5,4.9c0.9,1.4,1.8,2.3,3.1,2.7v0.1c-1.2,0.5-1.8,1.8-1.8,3.8c0,1.6,0.5,2.7,1.8,3.5V88c-3.4,1.1-5,3.2-5,6.2
		c0,2.6,1.1,4.6,3.4,5.8c1.8,1,4,1.5,6.8,1.5c6.7,0,10-2.8,10-8.4c0-3.5-2.6-5.7-7.7-6.4c-1.2-0.2-2.1-0.6-2.7-1.3
		c-0.5-0.5-0.7-0.9-0.7-1.4c0-1.3,0.7-2.1,2.2-2.3c2.2-0.3,4-1.3,5.4-3.1c1.4-1.7,2.1-3.7,2.1-6c0-0.7-0.2-1.5-0.5-2.3
		c0.8-0.2,1.5-0.4,1.9-0.5v19H87V62.9h-6.5V64z M70.4,91c3,0,4.5,0.9,4.5,2.8c0,2-1.4,2.9-4.2,2.9c-3.2,0-4.8-0.9-4.8-2.8
		C66,92,67.5,91,70.4,91L70.4,91z M70,76.7c-2.3,0-3.4-1.2-3.4-3.7c0-2.7,1.1-4,3.4-4c1.1,0,1.9,0.4,2.5,1.2
		c0.5,0.8,0.8,1.7,0.8,2.7C73.3,75.4,72.2,76.7,70,76.7L70,76.7z M70,76.7"/>
</g>
</svg>
