<?xml version="1.0" encoding="utf-8"?>
<!-- Generator: Adobe Illustrator 19.2.1, SVG Export Plug-In . SVG Version: 6.00 Build 0)  -->
<svg version="1.1" id="Calque_2" xmlns="http://www.w3.org/2000/svg" xmlns:xlink="http://www.w3.org/1999/xlink" x="0px" y="0px"
	 viewBox="0 0 159.5 156.8" style="enable-background:new 0 0 159.5 156.8;" xml:space="preserve">
<style type="text/css">
	.st0{fill:#72C3BF;}
	.st1{clip-path:url(#SVGID_2_);}
	.st2{clip-path:url(#SVGID_4_);}
	.st3{opacity:0.5;}
	.st4{clip-path:url(#SVGID_6_);fill:#72C3BF;}
	.st5{clip-path:url(#SVGID_8_);fill:#FFFFFF;}
	.st6{clip-path:url(#SVGID_10_);fill:#FFFFFF;}
	.st7{clip-path:url(#SVGID_12_);fill:#FFFFFF;}
	.st8{clip-path:url(#SVGID_14_);fill:#FFFFFF;}
	.st9{clip-path:url(#SVGID_16_);fill:#FFFFFF;}
	.st10{clip-path:url(#SVGID_18_);}
	.st11{clip-path:url(#SVGID_20_);}
	.st12{clip-path:url(#SVGID_22_);fill:#72C3BF;}
</style>
<rect x="-11" y="-23.1" class="st0" width="180.5" height="195"/>
<g>
	<g>
		<g>
			<defs>
				<rect id="SVGID_1_" x="29.1" y="27.3" width="101.9" height="101.9"/>
			</defs>
			<clipPath id="SVGID_2_">
				<use xlink:href="#SVGID_1_"  style="overflow:visible;"/>
			</clipPath>
			<g class="st1">
				<g>
					<g>
						<defs>
							<rect id="SVGID_3_" x="29.1" y="27.3" width="101.9" height="101.9"/>
						</defs>
						<clipPath id="SVGID_4_">
							<use xlink:href="#SVGID_3_"  style="overflow:visible;"/>
						</clipPath>
						<g class="st2">
							<g>
								<g class="st3">
									<g>
										<defs>
											<rect id="SVGID_5_" x="21.1" y="21.1" width="117.9" height="109"/>
										</defs>
										<clipPath id="SVGID_6_">
											<use xlink:href="#SVGID_5_"  style="overflow:visible;"/>
										</clipPath>
										<path class="st4" d="M80,129.2c28.1,0,51-22.8,51-51c0-28.1-22.8-51-51-51S29,50,29,78.2C29.1,106.4,51.9,129.2,80,129.2"
											/>
									</g>
								</g>
							</g>
						</g>
						<g class="st2">
							<g>
								<defs>
									<rect id="SVGID_7_" x="29.1" y="27.3" width="101.9" height="101.9"/>
								</defs>
								<clipPath id="SVGID_8_">
									<use xlink:href="#SVGID_7_"  style="overflow:visible;"/>
								</clipPath>
								<polygon class="st5" points="67.8,97.2 65,66.1 95.1,66.1 92.3,97.2 80,100.6 								"/>
							</g>
							<g>
								<g>
									<defs>
										<rect id="SVGID_9_" x="29.1" y="27.3" width="101.9" height="101.9"/>
									</defs>
									<clipPath id="SVGID_10_">
										<use xlink:href="#SVGID_9_"  style="overflow:visible;"/>
									</clipPath>
									<polygon class="st6" points="67.8,57.7 69.7,57.7 69.7,59.6 71.5,59.6 71.5,57.7 73.4,57.7 73.4,63.5 71.5,63.5 71.5,61.5 
										69.7,61.5 69.7,63.5 67.8,63.5 									"/>
								</g>
								<g>
									<g>
										<defs>
											<rect id="SVGID_11_" x="29.1" y="27.3" width="101.9" height="101.9"/>
										</defs>
										<clipPath id="SVGID_12_">
											<use xlink:href="#SVGID_11_"  style="overflow:visible;"/>
										</clipPath>
										<polygon class="st7" points="75.9,59.6 74.2,59.6 74.2,57.7 79.5,57.7 79.5,59.6 77.8,59.6 77.8,63.5 75.9,63.5 
																					"/>
									</g>
									<g>
										<g>
											<defs>
												<rect id="SVGID_13_" x="29.1" y="27.3" width="101.9" height="101.9"/>
											</defs>
											<clipPath id="SVGID_14_">
												<use xlink:href="#SVGID_13_"  style="overflow:visible;"/>
											</clipPath>
											<polygon class="st8" points="80.3,57.7 82.3,57.7 83.6,59.7 84.8,57.7 86.8,57.7 86.8,63.5 84.9,63.5 84.9,60.6 
												83.6,62.6 83.5,62.6 82.2,60.6 82.2,63.5 80.3,63.5 											"/>
										</g>
										<g>
											<g>
												<defs>
													<rect id="SVGID_15_" x="29.1" y="27.3" width="101.9" height="101.9"/>
												</defs>
												<clipPath id="SVGID_16_">
													<use xlink:href="#SVGID_15_"  style="overflow:visible;"/>
												</clipPath>
												<polygon class="st9" points="87.7,57.7 89.6,57.7 89.6,61.5 92.3,61.5 92.3,63.5 87.7,63.5 												"/>
											</g>
											<g>
												<g>
													<defs>
														<rect id="SVGID_17_" x="29.1" y="27.3" width="101.9" height="101.9"/>
													</defs>
													<clipPath id="SVGID_18_">
														<use xlink:href="#SVGID_17_"  style="overflow:visible;"/>
													</clipPath>
													<g class="st10">
														<g>
															<g>
																<defs>
																	<rect id="SVGID_19_" x="29.1" y="27.3" width="101.9" height="101.9"/>
																</defs>
																<clipPath id="SVGID_20_">
																	<use xlink:href="#SVGID_19_"  style="overflow:visible;"/>
																</clipPath>
																<g class="st11">
																	<g>
																		<g class="st3">
																			<g>
																				<defs>
																					<rect id="SVGID_21_" x="62.6" y="66.2" width="34.8" height="28.8"/>
																				</defs>
																				<clipPath id="SVGID_22_">
																					<use xlink:href="#SVGID_21_"  style="overflow:visible;"/>
																				</clipPath>
																				<polygon class="st12" points="89.4,72.4 70.6,72.4 71.6,84 84.6,84 84.2,88.8 80,90.2 75.8,88.8 75.5,85.9 
																					71.7,85.9 72.3,91.9 80,94.1 87.7,91.8 88.8,80.1 75.1,80.1 74.8,76.3 89.1,76.3 																				"/>
																			</g>
																		</g>
																	</g>
																</g>
															</g>
														</g>
													</g>
												</g>
											</g>
										</g>
									</g>
								</g>
							</g>
						</g>
					</g>
				</g>
			</g>
		</g>
	</g>
</g>
</svg>
