<?xml version="1.0" encoding="utf-8"?>
<!-- Generator: Adobe Illustrator 19.2.1, SVG Export Plug-In . SVG Version: 6.00 Build 0)  -->
<svg version="1.1" id="Calque_3" xmlns="http://www.w3.org/2000/svg" xmlns:xlink="http://www.w3.org/1999/xlink" x="0px" y="0px"
	 viewBox="0 0 159.5 156.8" style="enable-background:new 0 0 159.5 156.8;" xml:space="preserve">
<style type="text/css">
	.st0{fill:#D46548;}
	.st1{clip-path:url(#SVGID_2_);}
	.st2{clip-path:url(#SVGID_4_);}
	.st3{opacity:0.7;}
	.st4{clip-path:url(#SVGID_6_);fill:#D46548;}
	.st5{clip-path:url(#SVGID_8_);fill:#FFFFFF;}
	.st6{clip-path:url(#SVGID_10_);fill:#FFFFFF;}
	.st7{clip-path:url(#SVGID_12_);}
	.st8{clip-path:url(#SVGID_14_);fill:#FFFFFF;}
	.st9{clip-path:url(#SVGID_16_);fill:#FFFFFF;}
</style>
<rect x="-18" y="-16.1" class="st0" width="189" height="189"/>
<g>
	<g>
		<g>
			<defs>
				<rect id="SVGID_1_" x="29.4" y="26.4" width="101.9" height="101.9"/>
			</defs>
			<clipPath id="SVGID_2_">
				<use xlink:href="#SVGID_1_"  style="overflow:visible;"/>
			</clipPath>
			<g class="st1">
				<g>
					<g>
						<defs>
							<rect id="SVGID_3_" x="29.4" y="26.4" width="101.9" height="101.9"/>
						</defs>
						<clipPath id="SVGID_4_">
							<use xlink:href="#SVGID_3_"  style="overflow:visible;"/>
						</clipPath>
						<g class="st2">
							<g>
								<g class="st3">
									<g>
										<defs>
											<rect id="SVGID_5_" x="21.4" y="20.2" width="117.9" height="109"/>
										</defs>
										<clipPath id="SVGID_6_">
											<use xlink:href="#SVGID_5_"  style="overflow:visible;"/>
										</clipPath>
										<path class="st4" d="M80.4,128.4c28.1,0,51-22.8,51-51c0-28.1-22.8-51-51-51s-51,22.8-51,51
											C29.4,105.6,52.2,128.4,80.4,128.4"/>
									</g>
								</g>
								<g>
									<g>
										<defs>
											<rect id="SVGID_7_" x="29.4" y="26.4" width="101.9" height="101.9"/>
										</defs>
										<clipPath id="SVGID_8_">
											<use xlink:href="#SVGID_7_"  style="overflow:visible;"/>
										</clipPath>
										<path class="st5" d="M77,72.5L77,72.5c0.3,1.2,2.3,7.9,2.3,7.9H75C74.9,80.5,76.7,73.7,77,72.5 M74.3,83.8h5.6l1.5,5h4.8
											l-6.1-19.6h-5.8l-6,19.6h4.6L74.3,83.8z"/>
									</g>
									<g>
										<g>
											<defs>
												<rect id="SVGID_9_" x="29.4" y="26.4" width="101.9" height="101.9"/>
											</defs>
											<clipPath id="SVGID_10_">
												<use xlink:href="#SVGID_9_"  style="overflow:visible;"/>
											</clipPath>
											<rect x="87.9" y="74.6" class="st6" width="4.4" height="14.2"/>
										</g>
										<g>
											<g>
												<defs>
													<rect id="SVGID_11_" x="29.4" y="26.4" width="101.9" height="101.9"/>
												</defs>
												<clipPath id="SVGID_12_">
													<use xlink:href="#SVGID_11_"  style="overflow:visible;"/>
												</clipPath>
												<g class="st7">
													<g>
														<g>
															<defs>
																<rect id="SVGID_13_" x="29.4" y="26.4" width="101.9" height="101.9"/>
															</defs>
															<clipPath id="SVGID_14_">
																<use xlink:href="#SVGID_13_"  style="overflow:visible;"/>
															</clipPath>
															<path class="st8" d="M90.1,72.9c1.5,0,2.4-1,2.4-2.2c0-1.3-0.9-2.2-2.4-2.2c-1.4,0-2.4,1-2.3,2.2
																C87.7,71.9,88.7,72.9,90.1,72.9"/>
														</g>
														<g>
															<g>
																<defs>
																	<rect id="SVGID_15_" x="29.4" y="26.4" width="101.9" height="101.9"/>
																</defs>
																<clipPath id="SVGID_16_">
																	<use xlink:href="#SVGID_15_"  style="overflow:visible;"/>
																</clipPath>
																<path class="st9" d="M97.8,96.1h-35v-35h35V96.1z M60.4,98.6h39.9V58.7H60.4V98.6z"/>
															</g>
														</g>
													</g>
												</g>
											</g>
										</g>
									</g>
								</g>
							</g>
						</g>
					</g>
				</g>
			</g>
		</g>
	</g>
</g>
</svg>
