<?xml version="1.0" encoding="utf-8"?>
<!-- Generator: Adobe Illustrator 19.2.1, SVG Export Plug-In . SVG Version: 6.00 Build 0)  -->
<svg version="1.1" id="Calque_2" xmlns="http://www.w3.org/2000/svg" xmlns:xlink="http://www.w3.org/1999/xlink" x="0px" y="0px"
	 viewBox="0 0 159.5 156.8" style="enable-background:new 0 0 159.5 156.8;" xml:space="preserve">
<style type="text/css">
	.st0{fill:#2E6674;}
	.st1{clip-path:url(#SVGID_2_);}
	.st2{clip-path:url(#SVGID_4_);}
	.st3{opacity:0.6;}
	.st4{clip-path:url(#SVGID_6_);fill:#2E6674;}
	.st5{clip-path:url(#SVGID_8_);fill:#FFFFFF;}
	.st6{clip-path:url(#SVGID_10_);}
	.st7{clip-path:url(#SVGID_12_);fill:#FFFFFF;}
	.st8{clip-path:url(#SVGID_14_);fill:#FFFFFF;}
</style>
<rect x="-16" y="-14.1" class="st0" width="192" height="190"/>
<g>
	<g>
		<g>
			<defs>
				<rect id="SVGID_1_" x="29.8" y="26.4" width="101.9" height="101.9"/>
			</defs>
			<clipPath id="SVGID_2_">
				<use xlink:href="#SVGID_1_"  style="overflow:visible;"/>
			</clipPath>
			<g class="st1">
				<g>
					<g>
						<defs>
							<rect id="SVGID_3_" x="29.8" y="26.4" width="101.9" height="101.9"/>
						</defs>
						<clipPath id="SVGID_4_">
							<use xlink:href="#SVGID_3_"  style="overflow:visible;"/>
						</clipPath>
						<g class="st2">
							<g>
								<g class="st3">
									<g>
										<defs>
											<rect id="SVGID_5_" x="21.8" y="20.2" width="117.9" height="109"/>
										</defs>
										<clipPath id="SVGID_6_">
											<use xlink:href="#SVGID_5_"  style="overflow:visible;"/>
										</clipPath>
										<path class="st4" d="M80.8,128.4c28.1,0,51-22.8,51-51c0-28.1-22.8-51-51-51s-51,22.8-51,51
											C29.8,105.6,52.6,128.4,80.8,128.4"/>
									</g>
								</g>
							</g>
						</g>
						<g class="st2">
							<g>
								<defs>
									<rect id="SVGID_7_" x="29.8" y="26.4" width="101.9" height="101.9"/>
								</defs>
								<clipPath id="SVGID_8_">
									<use xlink:href="#SVGID_7_"  style="overflow:visible;"/>
								</clipPath>
								<rect x="70.5" y="69.4" class="st5" width="4.3" height="19"/>
							</g>
							<g>
								<g>
									<defs>
										<rect id="SVGID_9_" x="29.8" y="26.4" width="101.9" height="101.9"/>
									</defs>
									<clipPath id="SVGID_10_">
										<use xlink:href="#SVGID_9_"  style="overflow:visible;"/>
									</clipPath>
									<g class="st6">
										<g>
											<g>
												<defs>
													<rect id="SVGID_11_" x="29.8" y="26.4" width="101.9" height="101.9"/>
												</defs>
												<clipPath id="SVGID_12_">
													<use xlink:href="#SVGID_11_"  style="overflow:visible;"/>
												</clipPath>
												<path class="st7" d="M84,77.5c1.3,0,2.2,1,2.5,2.1c0,0.2,0.1,0.5,0.1,0.8v1.8c0,0.4,0,0.7-0.1,1
													c-0.3,1.2-1.2,2.1-2.5,2.1c-1.8,0-2.9-1.5-2.9-3.8C81.1,79.3,82.1,77.5,84,77.5 M82.6,88.6c1.8,0,3.4-0.8,4.3-2.3H87
													l0.2,2H91c0-0.9-0.1-2.6-0.1-4.1V68.3h-4.3v7.5h-0.1c-0.6-1-1.9-1.6-3.6-1.6c-3.3,0-6.2,2.7-6.2,7.3
													C76.7,85.8,79.3,88.6,82.6,88.6"/>
											</g>
											<g>
												<g>
													<defs>
														<rect id="SVGID_13_" x="29.8" y="26.4" width="101.9" height="101.9"/>
													</defs>
													<clipPath id="SVGID_14_">
														<use xlink:href="#SVGID_13_"  style="overflow:visible;"/>
													</clipPath>
													<path class="st8" d="M98.1,95.9H63.4V61.1h34.7C98.1,61.1,98.1,95.9,98.1,95.9z M60.9,98.3h39.6V58.7H60.9V98.3z"/>
												</g>
											</g>
										</g>
									</g>
								</g>
							</g>
						</g>
					</g>
				</g>
			</g>
		</g>
	</g>
</g>
</svg>
