<?xml version="1.0" encoding="utf-8"?>
<!-- Generator: Adobe Illustrator 19.2.1, SVG Export Plug-In . SVG Version: 6.00 Build 0)  -->
<svg version="1.1" id="Calque_3" xmlns="http://www.w3.org/2000/svg" xmlns:xlink="http://www.w3.org/1999/xlink" x="0px" y="0px"
	 viewBox="0 0 159.5 156.8" style="enable-background:new 0 0 159.5 156.8;" xml:space="preserve">
<style type="text/css">
	.st0{fill:#D46548;}
	.st1{fill:#FFFFFF;}
</style>
<rect x="-14" y="-21.1" class="st0" width="189" height="193"/>
<g id="XMLID_115_" transform="matrix(1.8189257,0,0,1.8237746,-82.14211,-64.843651)">
	<g id="XMLID_116_" transform="matrix(1.2699241,0,0,-1.2699241,3.3662307,208.12494)">
		<g id="XMLID_117_" transform="scale(0.1,0.1)">
			<path id="XMLID_141_" class="st1" d="M600.4,932.3h-11.9c-0.4,20.1-1.6,39.1-3.5,56.8h-0.1l-18.2-56.8h-9.1l-18.1,56.8h-0.1
				c-1.3-17-2.2-36-2.5-56.8H526c0.7,25.4,2.5,49.1,5.3,71.3h14.8l17.2-52.4h0.1l17.3,52.4h14.2C598,977.6,599.9,953.9,600.4,932.3"
				/>
			<path id="XMLID_140_" class="st1" d="M652.2,984.9c-4.9-26.4-11.3-45.5-19.2-57.5c-6.2-9.2-13-13.8-20.4-13.8
				c-2,0-4.4,0.6-7.3,1.8v6.4c1.4-0.2,3.1-0.3,5-0.3c3.5,0,6.2,1,8.3,2.9c2.5,2.3,3.8,4.9,3.8,7.8c0,2-1,6-3,12.1l-13.1,40.7h11.7
				l9.4-30.4c2.1-6.9,3-11.7,2.6-14.5c5.1,13.7,8.7,28.7,10.8,44.9H652.2"/>
			<path id="XMLID_139_" class="st1" d="M704.5,952.1c0-6-2.2-11-6.7-14.9c-4.4-3.9-10.4-5.8-17.8-5.8c-7,0-13.7,2.2-20.3,6.7
				l3.1,6.1c5.6-2.8,10.7-4.2,15.3-4.2c4.3,0,7.7,1,10.1,2.8c2.4,1.9,3.9,4.6,3.9,7.9c0,4.2-3,7.9-8.4,10.9c-5,2.7-15,8.5-15,8.5
				c-5.4,4-8.1,8.2-8.1,15.2c0,5.8,2,10.4,6.1,14c4.1,3.6,9.3,5.3,15.7,5.3c6.6,0,12.6-1.8,18.1-5.3l-2.8-6.1c-4.6,2-9.2,3-13.7,3
				c-3.7,0-6.5-0.9-8.4-2.6c-2-1.8-3.2-4-3.2-6.8c0-4.2,3-7.9,8.6-11c5.1-2.7,15.3-8.6,15.3-8.6C701.7,963.2,704.5,959,704.5,952.1"
				/>
			<path id="XMLID_136_" class="st1" d="M725.8,946.6c-2.9,4.6-4.3,12.1-4.3,22.4c0,18,5.5,26.9,16.4,26.9c5.7,0,9.9-2.1,12.6-6.4
				c2.9-4.7,4.3-12,4.3-22.2c0-18.1-5.5-27.2-16.4-27.2C732.7,940.1,728.5,942.3,725.8,946.6 M768.3,930.6l-13.1,6.5
				c1.2,1,2.3,2,3.3,3.2c5.6,6.5,8.4,16.2,8.4,29c0,23.6-9.3,35.4-27.8,35.4c-9.1,0-16.2-3-21.2-9c-5.6-6.6-8.3-16.2-8.3-28.9
				c0-12.5,2.5-21.7,7.4-27.6c4.5-5.3,11.3-7.9,20.4-7.9c3.4,0,6.5,0.4,9.3,1.3l17.1-9.9L768.3,930.6"/>
			<path id="XMLID_135_" class="st1" d="M811.1,932.3h-33.9v71.3h11.4v-62.5h22.5V932.3"/>
			<path id="XMLID_120_" class="st1" d="M819.2,932.3h1.9v7.3h2.5v1.5h-6.9v-1.5h2.6V932.3L819.2,932.3z M833.6,932.3h1.8v8.7h-2.7
				l-2.2-6l-2.4,6h-2.6v-8.7h1.7v6.6h0.1l2.5-6.6h1.3l2.5,6.6L833.6,932.3"/>
			<path id="XMLID_119_" class="st1" d="M825.4,1027.5c-6.9,0.2-12.2-0.5-16.7-2.4c-1.3-0.5-3.4-0.5-3.5-2.2
				c0.7-0.7,0.8-1.8,1.4-2.8c1-1.7,2.8-4,4.5-5.3c1.8-1.4,3.6-2.8,5.5-4c3.4-2.1,7.2-3.3,10.4-5.3c1.9-1.2,3.8-2.8,5.7-4.1
				c0.9-0.7,1.5-1.8,2.8-2.2v0.3c-0.6,0.8-0.8,1.9-1.4,2.8c-0.9,0.9-1.7,1.6-2.6,2.5c-2.5,3.4-5.6,6.3-9,8.7
				c-2.8,1.9-8.8,4.5-9.9,7.7c0,0-0.1,0.1-0.2,0.2c1.9,0.2,4.1,0.9,5.9,1.4c2.9,0.8,5.6,0.6,8.6,1.4c1.4,0.3,2.8,0.8,4.1,1.2v0.8
				c-1.6,1.5-2.7,3.6-4.3,5.1c-4.4,3.8-9.2,7.5-14.2,10.6c-2.7,1.7-6.1,2.8-9,4.3c-1,0.5-2.8,0.8-3.4,1.6c-1.6,1.9-2.4,4.4-3.5,6.6
				c-2.5,4.7-4.9,10-7.1,15c-1.6,3.4-2.5,6.7-4.4,9.8c-8.9,14.7-18.5,23.5-33.3,32.2c-3.2,1.8-7,2.6-11,3.5
				c-2.2,0.1-4.3,0.3-6.5,0.3c-1.4,0.6-2.8,2.2-4,3c-4.9,3.1-17.6,9.8-21.2,0.9c-2.3-5.6,3.4-11.1,5.4-14c1.5-2,3.4-4.2,4.4-6.5
				c0.6-1.5,0.8-3,1.4-4.6c1.4-3.8,2.7-8,4.5-11.5c0.9-1.8,2-3.7,3.2-5.3c0.7-1,1.9-1.4,2.2-2.9c-1.2-1.7-1.3-4.3-2-6.5
				c-3.1-9.7-1.9-21.8,2.5-28.9c1.4-2.2,4.7-6.9,9-5.1c3.9,1.5,3,6.5,4.1,10.8c0.3,1,0.1,1.7,0.6,2.4v-0.2c1.2-2.4,2.4-4.7,3.5-7.2
				c2.7-4.2,7.3-8.6,11.2-11.5c2.1-1.6,3.7-4.2,6.3-5.2v0.3h-0.2c-0.5,0.8-1.3,1.1-2,1.7c-1.6,1.6-3.3,3.4-4.5,5.2
				c-3.6,4.8-6.8,10.2-9.6,15.7c-1.4,2.7-2.6,5.6-3.7,8.3c-0.5,1-0.5,2.6-1.4,3.1c-1.3-1.9-3.2-3.5-4.1-5.9c-1.6-3.7-1.8-8.3-2.4-13
				c-0.3-0.1-0.2,0-0.3-0.2c-2.8,0.7-3.7,3.5-4.7,5.9c-2.6,6.1-3,15.9-0.8,23c0.6,1.8,3.2,7.5,2.2,9.2c-0.5,1.6-2.2,2.6-3.2,3.9
				c-1.1,1.6-2.3,3.7-3.1,5.5c-2.1,4.8-3.1,10.2-5.3,15c-1,2.2-2.8,4.6-4.3,6.6c-1.6,2.3-3.4,4-4.7,6.7c-0.4,0.9-1,2.5-0.3,3.5
				c0.2,0.7,0.5,0.9,1.2,1.1c1.1,0.9,4.3-0.3,5.4-0.8c3.2-1.3,5.9-2.5,8.5-4.3c1.2-0.9,2.5-2.5,4-2.9h1.8c2.8-0.6,5.9-0.2,8.4-0.9
				c4.6-1.5,8.7-3.6,12.4-5.9c11.3-7.2,20.6-17.3,26.9-29.5c1-2,1.5-3.8,2.4-5.9c1.8-4.2,4.1-8.5,5.9-12.7c1.8-4.1,3.5-8.2,6.1-11.5
				c1.3-1.8,6.5-2.8,8.8-3.7c1.7-0.8,4.4-1.5,5.9-2.4c2.9-1.8,5.9-3.9,8.6-5.9C820.8,1031.4,825.1,1029.2,825.4,1027.5"/>
			<path id="XMLID_118_" class="st1" d="M737.5,1102.4c-1.5,0-2.5-0.2-3.5-0.4v-0.2h0.2c0.7-1.4,1.9-2.3,2.8-3.5
				c0.7-1.4,1.3-2.8,2-4.1c0.1,0.1,0.2,0.2,0.2,0.2c1.2,0.9,1.8,2.2,1.8,4.3c-0.5,0.6-0.6,1.2-1,1.8
				C739.3,1101.3,738.2,1101.7,737.5,1102.4"/>
		</g>
	</g>
</g>
</svg>
