<?xml version="1.0" encoding="utf-8"?>
<!-- Generator: Adobe Illustrator 19.2.1, SVG Export Plug-In . SVG Version: 6.00 Build 0)  -->
<svg version="1.1" id="Calque_1" xmlns="http://www.w3.org/2000/svg" xmlns:xlink="http://www.w3.org/1999/xlink" x="0px" y="0px"
	 viewBox="0 0 595.3 420.9" style="enable-background:new 0 0 595.3 420.9;" xml:space="preserve">
<style type="text/css">
	.st0{fill:#FFFFFF;}
</style>
<g>
	<path class="st0" d="M514,243.9c-0.2-0.5-0.4-1-0.5-1.7c0.4-5,1.7-10,3.8-14.9c2.1-4.9,4.3-9.3,6.8-13.3c2.5-3.9,4.8-7.2,7.1-9.9
		c2.2-2.6,3.8-4.2,4.6-4.7c-0.7,2.2-1.3,4.4-2,6.6c-0.5,1.9-1.1,3.9-1.7,6.2c-0.6,2.3-1,4.3-1.4,6.1c-0.5,2.8-0.8,5.6-0.9,8.4
		c-0.1,2.8,0.1,5.5,0.5,8c0.4,2.5,1,4.6,1.8,6.4c0.8,1.8,1.9,3,3.3,3.8c1.7,0.9,3.4,1.3,5,1.2c1.6,0,3-0.3,4.3-0.8
		c1.3-0.5,2.3-1,3-1.6c0.7-0.6,1.2-0.9,1.4-1.1c2.7-2.6,5.1-5.9,7.1-9.9c2-4,3.7-7.9,5-11.6c1.6-4.4,2.9-9,4-13.6
		c0.8-3.7,1.2-5.8,1.1-6.2c0.1-0.6-0.2-1-0.7-1.1c-0.5-0.1-1-0.1-1.4,0c-0.2,0-0.3,0.1-0.4,0.2c-0.5,0.9-1.1,2.3-1.7,4
		c-0.7,1.7-1.4,3.7-2.1,5.9c-0.8,2.2-1.6,4.6-2.5,7.2c-0.9,2.6-1.8,5.1-2.8,7.5c-0.9,2.3-1.9,4.4-2.9,6.3c-0.9,1.6-1.9,3.3-2.9,4.9
		c-1.1,1.7-2.1,2.9-3,3.7c-1.1,0.9-2,1-2.5,0.4c-0.5-0.6-0.9-1.2-1-1.9c-0.6-1.9-0.8-4.5-0.4-7.8c0.4-3.3,1-6.7,1.8-10.2
		c0.8-3.5,1.8-6.8,2.8-9.9c1-3.1,1.8-5.6,2.5-7.2c0.3-1,0.6-2,0.9-2.9c0.3-0.9,0.6-1.8,0.8-2.7c0.4-1.6,0.4-3.5,0.2-5.7
		c-0.2-2.2-1.3-3.9-3.3-5c-1.2-0.5-2.5-0.8-3.6-0.8c-1.2,0-2.2,0.3-3.2,0.7c-2.1,1-4.3,2.4-6.3,4.2c-2.1,1.8-4.1,3.9-6,6.3
		c-1.9,2.4-3.8,4.9-5.6,7.7c-1.8,2.7-3.3,5.4-4.7,8.1c-0.8,1.6-1.5,3.2-2.2,4.6c-0.7,1.5-1.4,3-2,4.4c0.6-3.4,1.4-6.8,2.3-10.3
		c0.9-3.4,2-6.8,3.3-10.2c0.2-0.9,0.5-2,0.9-3.3c0.4-1.4,0.5-2.7,0.5-4c0-1.3-0.3-2.4-0.8-3.5c-0.5-1.1-1.5-1.7-2.9-1.9
		c-1.5-0.2-2.8,0-3.9,0.7c-1.1,0.7-2.1,1.5-3,2.6c-0.8,1.1-1.5,2.3-2.1,3.7c-0.6,1.4-1.1,2.6-1.4,3.7c-1.6,5.3-2.9,10.6-3.9,15.9
		c-0.9,5.3-1.4,10.8-1.3,16.3c0,3,0.4,6.2,1.1,9.5c0.7,3.4,2,6.3,4.1,8.6c0.7,0.9,1.9,1.5,3.5,1.9c1.7,0.3,3.1,0,4.3-0.9
		c0.9-0.6,1.3-1.4,1.1-2.3c-0.2-0.9-0.4-1.8-0.8-2.5C514.5,245.8,514.3,245,514,243.9 M501.7,159c-1.6,0.5-3,1.4-4.2,2.4
		c-1.5,1.2-2.9,2.8-4.2,4.6c-1.6,2.3-2.8,4.8-3.7,7.4c-0.9,2.7-1.5,5.3-1.8,7.8c-0.3,2.5-0.2,4.9,0.1,7.1c0.3,2.2,0.9,3.9,1.7,5.2
		c0.5,0.7,1.2,1.4,2.2,1.9c1,0.6,2,0.6,3,0.2c0.9-0.3,1.2-0.8,1-1.6c-0.1-0.4-0.2-0.8-0.4-1.1c-0.8-1.6-0.8-3.4-0.1-5.6
		c0.7-2.2,1.8-4.4,3.3-6.6c1.5-2.3,3.2-4.5,5-6.8c1.8-2.2,3.4-4.2,4.8-6c1-1.4,1.5-2.6,1.5-3.6c0-1.1-0.3-2-0.9-2.7
		c-0.6-0.9-1.5-1.6-2.6-2.2C504.8,158.6,503.3,158.5,501.7,159 M491.6,253.6c0.7-0.9,1.4-1.7,1.9-2.4c0.6-0.9,1.3-1.8,1.9-2.7
		c1.4-2.4,2.7-4.8,3.7-7.3c1.1-2.5,2-5,2.9-7.6c0.9-2.6,1.6-4.9,2.2-7.1c0.6-2.2,1-4.1,1.4-5.8c0.8-3.6,1.2-5.6,1.3-6.3
		c0-0.6-0.3-1-0.9-1.2c-0.2-0.1-0.4-0.1-0.6,0c-0.2,0-0.4,0.1-0.6,0.1l-0.3,0.1c-0.1,0-0.2,0.1-0.3,0.2c-0.5,0.9-1.1,2.3-1.7,4
		c-0.6,1.7-1.3,3.7-2,5.9c-0.8,2.2-1.7,4.6-2.6,7.2c-0.9,2.6-1.8,5.1-2.8,7.5c-0.6,1.3-1.1,2.4-1.6,3.6c-0.5,1.1-1.1,2.2-1.7,3.3
		c-0.6,1.2-1.2,2.3-1.9,3.3c-0.6,1-1.2,1.9-1.9,2.7c-0.6,0.9-1.3,1.5-1.9,1.9c-1,0.9-1.8,1.1-2.4,0.5c-0.5-0.6-0.9-1.2-1.2-1.9
		c-0.6-1.9-0.7-4.5-0.3-7.9c0.4-3.3,1-6.7,1.9-10.2c0.8-3.5,1.8-6.8,2.8-9.9c1-3.1,1.8-5.5,2.4-7.2c0.8-2,1.4-4,1.9-5.9
		c0.4-1.9,0.7-3.7,0.7-5.3c0-1.6-0.3-2.9-0.8-4.1c-0.5-1.1-1.4-1.8-2.6-2.1c-1.1-0.2-2.1,0-3,0.5c-0.9,0.5-1.7,1.1-2.4,1.8
		c-0.9,0.8-1.7,1.8-2.4,3c-1.1,1.7-2.2,3.8-3.4,6.5c-1.2,2.7-2.5,6.2-3.9,10.5c-1,3-1.7,6.4-2.2,10.3c-0.5,3.9-0.7,7.6-0.6,11.2
		c0.1,3.6,0.5,6.8,1.4,9.6c0.9,2.8,2.2,4.7,3.9,5.6c1.7,0.9,3.4,1.3,5,1.2c1.6,0,3-0.3,4.3-0.9c1.3-0.5,2.3-1.1,3-1.7
		c0.7-0.6,1.2-0.9,1.4-1.1C490.2,255.2,490.9,254.4,491.6,253.6 M495.3,167.3c2.3-0.2,4.3-0.3,6.1-0.4c1.9,0,3.8,0.1,5.4,0.2
		c1.4,0.2,2.7,0.5,3.9,0.9c1.1,0.3,2.2,0.7,3.2,1.3c1.1,0.6,1.9,1.3,2.6,2.2c0.2,0.5,0.4,1,0.7,1.7c0.2,0.6,0.4,1.2,0.5,2
		c0.1,0.8,0.2,1.8,0.1,2.9c-0.1,0.8-0.2,1.6-0.2,2.3c0,0.7,0.4,1,1.2,0.9c0.8-0.1,1.5-0.6,2.1-1.5c0.6-1,0.8-2.6,0.6-4.9
		c0-1.1-0.2-2.1-0.6-3c-0.3-0.8-0.7-1.6-1-2.2c-0.5-0.7-0.9-1.4-1.2-1.9c-0.9-0.9-1.9-1.7-2.9-2.4c-1-0.7-2-1.1-2.9-1.5
		c-1.1-0.4-2.2-0.7-3.1-1c-3-0.8-6.3-1.1-9.7-1.1c-3.4,0.1-6.6,0.3-9.5,0.6c-3.4,0.3-6.8,0.9-10.3,1.6c-2.1,0.4-4.2,0.8-6.3,1.3
		c-2.1,0.5-4.3,1.1-6.5,1.6c0.1-0.4,0.3-0.8,0.4-1.2c0.2-0.4,0.3-0.7,0.5-1c0.1-0.3,0.2-0.6,0.3-0.8c0.7-1.8,1.4-3.6,1.9-5.4
		c0.5-1.8,0.9-3.5,1-5c0.1-1.5,0-2.9-0.3-4c-0.4-1.2-1-2-1.9-2.5c-1.2-0.6-2.2-0.7-3.2-0.3c-1,0.4-1.9,0.9-2.8,1.6
		c-1,0.8-1.9,1.9-2.8,3.2c-1,1.6-2,3.4-3.1,5.5c-1.1,2.1-2.3,4.9-3.6,8.4c-0.6,1.3-1.3,3.3-2.4,6.1c-2.8,1-5.9,2.1-9.4,3.3
		c-3.1,1.1-6.7,2.3-11,3.8c-4.3,1.4-9.2,3.2-14.6,5.2c-3.2,1.2-6.2,2.2-8.8,3.1c-2.6,0.8-4.9,1.6-6.8,2.2c-2.3,0.7-4.3,1.3-6.1,1.6
		c-5.4,1.2-9.6,1.6-12.5,1.3c-2.9-0.3-5.2-0.8-6.7-1.6c-1.7-0.9-2.8-2.1-3.1-3.8c-0.2-1.6-0.6-2.8-1.2-3.6c-0.5-0.8-1.6-0.9-3.1-0.4
		c-0.5,0.2-0.9,0.6-1.1,1.1c-0.3,0.5-0.5,1.1-0.6,1.6c-0.2,0.7-0.3,1.4-0.3,2.2c0,0.3,0,0.8,0.1,1.6c0.1,0.7,0.4,1.6,0.9,2.4
		c0.5,0.9,1.2,1.7,2.2,2.6s2.3,1.6,4.1,2.1c2.4,0.6,5.3,0.9,8.8,1c3,0.1,6.7-0.2,11.1-0.8c4.4-0.6,9.6-1.9,15.5-3.9
		c2.5-0.7,4.9-1.5,7-2.3c2.2-0.8,4.1-1.5,5.9-2c2-0.7,3.8-1.5,5.5-2.1c1.9-0.6,4.1-1.4,6.5-2.3c2.4-0.9,4.8-1.7,7.1-2.5
		c2.6-1,5.3-1.9,8.2-2.7c-1.1,3.3-2.3,7-3.5,11c-1.2,4-2.4,8.2-3.5,12.7c-1.1,4.4-2.1,9-2.9,13.7c-0.9,4.7-1.5,9.3-2,13.8
		c-0.4,2.9-0.7,5.8-0.9,8.7c-0.2,3-0.3,5.9-0.3,8.9c0,2.8,0.2,5.4,0.6,7.9c0.3,2.1,0.8,4.1,1.5,6.1c0.8,1.9,1.8,3.3,3.1,4
		c2.1,1.1,4,1.5,5.8,1.2c1.8-0.3,3.3-0.7,4.6-1.3c2.9-1.2,5.6-3.3,8-6.2c2.5-2.9,4.6-5.9,6.4-8.9c2.1-3.5,4-7.3,5.7-11.4
		c0.6-1.8,1.3-3.6,1.9-5.6c0.6-1.9,1.2-3.7,1.6-5.2c0.6-1.9,1.1-3.7,1.6-5.4c0.3-1.1,0.2-1.8-0.2-2.3c-0.4-0.4-0.9-0.7-1.4-0.8
		c-0.4,0-0.8,0.3-1.2,0.9c-0.2,0.4-0.4,0.8-0.5,1.2c-0.8,1.7-1.6,3.6-2.4,5.8c-0.9,2.2-1.8,4.4-2.9,6.7c-1.8,4.2-3.6,8.1-5.5,11.7
		c-1.7,3-3.5,6-5.5,8.9c-2,2.9-4,4.9-6.1,6.1c-0.9,0.6-1.6,0.6-2.2,0c-0.5-0.6-0.9-1.2-1-1.8c-0.5-1.8-0.8-4-0.9-6.5
		c-0.1-2.5,0-5.1,0.3-7.9c0.3-2.8,0.6-5.6,1.1-8.6c0.4-3,0.9-5.8,1.4-8.6c1.2-6.6,2.8-13.5,4.8-20.6c0.6-2.3,1.4-4.8,2.2-7.4
		c0.8-2.6,1.5-5.1,2.2-7.4c0.7-2.7,1.5-5.4,2.4-8.1c0.3-1.2,0.7-2.7,1.4-4.5c0.7-1.8,1.4-3.7,2.1-5.6c8-2.3,15.5-4,22.5-5.4
		C490.3,167.9,492.9,167.5,495.3,167.3 M423.2,222.9c-0.5,1.1-1,2.2-1.3,3.4c-0.4,1.2-0.4,2.3-0.3,3.4c0.2,1,1,1.8,2.4,2.2
		c0.9,0.3,1.6,0.3,2.2,0.1c0.6-0.3,1.1-0.7,1.5-1.2c0.5-0.5,0.9-1.2,1.3-2c0.9-1.9,1.6-4.3,2-7c0.4-2.7,0.2-4.9-0.7-6.6
		c-0.6-1.1-1.7-1.9-3.3-2.4c-1.5-0.5-3.3-0.3-5.3,0.5c-1.8,0.7-3.5,2-5.2,3.8c-1.7,1.9-3.3,4-4.8,6.3c-1.5,2.4-2.9,5-4.2,7.8
		c-1.3,2.8-2.5,5.6-3.6,8.2c1.2-4.7,2.6-9.2,4.1-13.5c0.3-0.9,0.6-2,1-3.4c0.3-1.4,0.5-2.7,0.5-4c0-1.3-0.2-2.5-0.8-3.5
		c-0.5-1.1-1.5-1.7-2.9-1.9c-1.5-0.2-2.8,0-3.9,0.7c-1.1,0.7-2.2,1.5-3,2.7c-0.9,1.1-1.6,2.4-2.2,3.7c-0.6,1.4-1.1,2.6-1.4,3.7
		c-1.6,5.3-2.9,10.6-3.9,15.9c-0.9,5.3-1.4,10.8-1.3,16.3c0,3,0.4,6.1,1.1,9.5c0.7,3.4,2.1,6.3,4.1,8.6c0.8,0.9,2,1.5,3.5,1.9
		c1.7,0.3,3.1,0,4.3-0.9c0.9-0.6,1.3-1.4,1.1-2.3c-0.2-0.9-0.4-1.8-0.8-2.5c-0.4-0.9-0.7-1.6-0.8-2.1l-0.2-0.9
		c-0.5-3.4-0.4-6.9,0.2-10.6c0.7-3.7,1.7-7.3,3-10.7c1.3-3.5,2.8-6.8,4.5-9.9c1.7-3.1,3.4-5.9,5-8.3c1.6-2.4,3.1-4.3,4.4-5.8
		c1.3-1.5,2.2-2.3,2.7-2.4c0.2-0.1,0.4-0.2,0.6-0.1c0.4,0.1,0.7,0.4,0.8,0.8C423.9,221,423.7,221.8,423.2,222.9 M341.3,287.4
		c-1,0.3-1.9,0-2.6-1c-0.7-0.9-1.1-2.6-1-5.2c0-2.6,0.2-5.5,0.7-8.8c0.5-3.3,1.2-6.7,2.1-10.2c0.9-3.5,2-6.7,3.3-9.4
		c2.6-5.7,5.1-10.2,7.7-13.6c2.6-3.4,5.1-4.8,7.5-4.3c0.8,0.1,1.5,0.6,2.1,1.5c0.6,0.9,1,1.9,1.4,3.1c0.4,1.2,0.6,2.3,0.7,3.4
		c0.1,1.1,0.2,1.9,0.2,2.4c-0.5,1.5-1,3.1-1.6,4.8c-0.5,1.4-1,3-1.4,4.7c-0.5,1.7-0.8,3.3-1.1,4.9c-0.9,2.5-1.9,4.9-3,7.4
		c-1,2.2-2.1,4.5-3.4,7c-1.3,2.5-2.8,4.8-4.4,6.9c-0.5,0.7-0.9,1.3-1.4,1.9c-0.4,0.5-0.9,1-1.4,1.5c-0.6,0.5-1.1,1-1.6,1.4
		C343.2,286.6,342.3,287.1,341.3,287.4 M358.2,281.4c0.3,1.9,0.8,3.5,1.3,4.8c0.3,1,0.8,1.8,1.3,2.6c0.5,0.7,1.1,1.4,1.8,2.2
		c0.7,0.7,1.6,1.3,2.8,1.8c0.7,0.4,1.5,0.5,2.4,0.6c0.8,0,1.7-0.1,2.7-0.4c1-0.3,2.1-0.9,3.3-1.8c1.8-1.3,3.5-3.1,5.1-5.4
		c1.6-2.3,3-4.6,4.1-6.9c1.3-2.6,2.5-5.4,3.6-8.2c1.9-4.6,3.4-8.8,4.6-12.7c1.2-3.8,2.1-7.2,2.7-10c0.7-3.3,1.2-6.3,1.6-9
		c0.1-1-0.1-1.6-0.5-1.7c-0.8-0.1-1.3-0.1-1.5,0.2c-0.2,0.1-0.3,0.3-0.5,0.6c-0.7,1.6-1.5,3.8-2.5,6.8c-1,2.9-2.1,6.3-3.3,10
		c-1.5,4.8-3.1,9.4-4.9,13.7c-0.7,1.8-1.5,3.6-2.4,5.4c-0.8,1.8-1.7,3.6-2.6,5.2c-0.9,1.6-1.9,3.1-2.8,4.5c-0.9,1.3-1.9,2.4-2.9,3.1
		c-1.3-0.4-2.1-1.9-2.3-4.5c-0.2-2.6,0-5.6,0.5-9.1c0.5-3.5,1.3-7.3,2.2-11.3c1-4,1.9-7.7,2.8-11.2c0.2-0.9,0.4-2,0.6-3.3
		c0.2-1.3,0.2-2.6,0.1-3.9c-0.1-1.3-0.5-2.5-1.1-3.6c-0.6-1.1-1.5-1.9-2.7-2.3c-1-0.3-1.9-0.2-2.8,0.2c-0.9,0.4-1.7,1.2-2.4,2.1
		c-0.3-4.5-1.2-7.7-2.9-9.6c-1.7-1.9-3.4-3.2-5.3-3.7c-2.2-0.7-4.6-0.6-7.3,0.2c-2.8,0.8-5.3,2.1-7.5,3.8c-2.2,1.7-4,3.4-5.3,5.2
		c-1.7,2.1-3.1,4.3-4.3,6.6c-1.3,2.2-2.4,4.8-3.6,7.7c-0.9,2.5-1.8,5.4-2.6,8.8c-0.8,3.4-1.3,7.1-1.5,11c-0.2,5.1,0.1,9.3,1,12.6
		c0.9,3.3,2.2,5.8,3.9,7.5c1.7,1.7,3.6,2.6,5.7,2.8c2.1,0.2,4.4-0.3,6.7-1.4c2.6-1.2,4.8-2.7,6.6-4.5c1.8-1.8,3.2-3.6,4.3-5.2
		c1.3-2,2.4-4.1,3.1-6.1C357.8,277.6,357.9,279.6,358.2,281.4 M342.2,313.3c-0.8-0.4-1.4-0.9-1.9-1.7c-0.5-0.7-0.7-1.4-0.6-2.2
		c0-0.7,0.3-1.4,0.7-1.9c0.4-0.5,0.9-1,1.6-1.3c0.6-0.3,1.3-0.5,2-0.6c0.5,0,1,0.1,1.5,0.4c1,0.5,1.9,1.5,2.7,3.1
		c0.2,0.5,0.4,1,0.5,1.6c0.1,0.5,0.2,1.1,0.4,1.8c0.1,0.7,0.2,1.4,0.2,2.3c-0.5,0-1,0-1.5,0c-0.5,0-1-0.1-1.4-0.2
		c-0.4-0.1-0.9-0.2-1.5-0.3C343.9,314,343,313.7,342.2,313.3 M79.3,303.5c-2.1,6.8-3.2,13.7-3.2,20.7c0,3.6,0.2,7.1,0.7,10.5
		c0.5,3.4,1.4,6.7,2.6,9.8c1.7,5,4,9.3,7,13.1c3.3,4.1,7.1,7.5,11.5,10.3c9.8,6.1,22.1,8.4,36.6,7.1c1.9-0.2,3.8-0.5,5.7-0.8
		c1.9-0.4,3.6-0.8,5.1-1.3c1.7-0.5,3.4-1,5-1.7c1.8-0.7,4.3-1.8,7.4-3.4c3.1-1.6,6.7-3.8,10.6-6.8c3.9-3,8.2-6.7,12.7-11.2
		c4.6-4.5,9.2-9.9,13.9-16.3c4.7-6.4,9.4-13.9,14-22.6c4.6-8.7,9-18.6,13.1-29.9c4.5-12.1,8.4-22.6,11.8-31.6c3.4-9,6.4-16.8,9-23.3
		c2.6-6.5,4.9-11.8,6.8-15.9c1.9-4.2,3.6-7.4,5.2-9.8c1-1.5,2-2.8,3-3.9c0.9-0.9,1.9-1.6,2.9-2c1-0.4,2.1-0.2,3.2,0.7
		c0.5,0.5,1,1.2,1.4,2.1c0.4,0.9,0.6,2.1,0.6,3.6c0,1.5-0.3,3.5-0.9,5.8c-0.6,2.3-1.6,5.1-3,8.4c-2.1,4.7-4.2,9.9-6.3,15.8
		c-2.1,5.8-4.1,12.4-6,19.7c-3.3,12.5-5.3,23.8-5.9,33.7c-0.6,9.9-0.2,18.7,1.2,26.4c0.1,0.6,0.4,1.4,0.9,2.5
		c0.4,1.1,1.2,1.9,2.4,2.5c0.2,0.2,0.6,0.3,1,0.4c0.3,0.1,0.7,0.2,1.2,0.3c0.5,0.1,1,0,1.6-0.1c1.2-0.2,2.2-0.6,2.9-1.3
		c0.8-0.7,1.4-1.6,1.8-2.6c0.5-1,0.8-1.9,1-2.9c0.2-1,0.3-1.8,0.4-2.5c0-0.4,0-0.8,0-1.2c0-0.5,0.1-1.3,0.3-2.4
		c0.3-1.8,0.6-3.4,0.8-4.6c0.2-1.3,0.4-2.2,0.5-2.7c1.2-4.8,2.7-10.5,4.6-17.2c1.8-6.7,3.9-13.6,6.3-20.8c2.4-7.2,5-14.4,7.9-21.5
		c2.9-7.1,5.9-13.5,9.2-19.2c3.2-5.7,6.6-10.3,10.1-13.9c3.5-3.6,7.2-5.5,10.9-5.8c0.9,0,1.8,0.1,2.5,0.4c0.7,0.3,1.4,0.7,2.1,1.3
		c0.7,0.6,1.3,1.6,1.8,2.9c0.5,1.4,0.6,3.5,0.3,6.1c-0.3,2.6-1.3,6-3,10c-2,4.8-4,10.1-5.9,15.9c-1.9,5.9-3.6,12.2-5.1,19
		c-2.3,10.9-3.4,20.5-3.5,29.1c0,8.5,0.6,16,2.1,22.4c1.4,6.4,3.5,11.8,6.3,16.2c2.7,4.4,5.8,7.8,9.2,10.2c3.4,2.4,6.9,3.9,10.6,4.5
		c3.7,0.6,7.2,0.3,10.7-0.9c1.8-0.5,3.6-1.3,5.3-2.4c1.5-0.9,3.1-2.3,4.6-3.9c1.5-1.7,2.8-3.9,3.9-6.7c3,0.2,6.4,0,10-0.6
		c3.7-0.6,7.7-1.6,12.1-3.1c3.9-1.3,7.5-2.7,10.8-4.3c3.3-1.6,6.5-3.2,9.5-4.8c3-1.6,6-3.1,9-4.5c2.9-1.4,6-2.7,9.1-3.7
		c1.1-0.3,2.2-0.6,3.3-0.9c1.1-0.2,2.2-0.5,3.5-0.8c1.2-0.3,2.5-0.5,3.9-0.7c3-0.3,5.6-0.5,7.9-0.3c2.3,0.1,4.2,0.4,5.9,0.7
		c1.9,0.4,3.6,0.9,4.9,1.4c3.7,1.6,8.4,4,14.1,7.4c2.1,1.3,3.9,1.9,5.3,1.8c1.4-0.1,2.6-0.4,3.5-1c1-0.6,1.8-1.6,2.5-2.8
		c0.2-0.9,0.3-1.8,0.2-2.8c-0.2-0.8-0.6-1.7-1.1-2.8c-0.6-1.1-1.7-2.1-3.4-3c-2.3-1.2-4.9-2.3-7.8-3.1c-2.5-0.7-5.5-1.3-9.1-1.7
		c-3.5-0.5-7.6-0.5-12.1,0c-2.9,0.2-5.8,0.6-8.5,1.1c-2.8,0.5-5.3,1-7.6,1.6c-2.3,0.5-4.3,1.1-6,1.6c-1.7,0.5-2.9,0.9-3.7,1.2
		c-1.9,0.6-4.1,1.4-6.5,2.3c-2.4,0.9-5,1.9-7.9,3.2c-7.1,3.1-13.9,5.7-20.2,7.9c-6.3,2.2-13.1,3.5-20.2,3.8c0-0.4,0-1.1,0.1-2.1
		c0-1-0.1-2.1-0.3-3.2c-0.3-1.2-0.7-2.4-1.5-3.5c-0.7-1.2-1.8-2.2-3.2-3c-1.7-1-3.3-1.3-5-1c-1.7,0.3-3.1,1.1-4.4,2.3
		c-1.2,1.2-2.1,2.7-2.6,4.6c-0.5,1.8-0.2,3.7,0.7,5.7c0.9,1.9,2.3,3.4,4.1,4.6c1.8,1.2,4.2,2,6.9,2.4c-0.8,1.6-1.8,3.1-3.2,4.6
		c-1.3,1.5-3,2.7-5.2,3.8c-4,2-7.9,1.6-11.8-1.1c-3.9-2.7-7.1-7.2-9.7-13.4c-2.6-6.3-4.3-14.1-5.1-23.4c-0.8-9.4-0.1-19.7,2-31.1
		c0.6-3.7,1.5-8.5,2.5-14.2c1.1-5.7,2.8-12,5.1-18.7l0-0.1c4.8-14.8,4.6-25.1-0.7-30.8c-1.5-1.5-3-2.6-4.7-3.2
		c-1.7-0.6-3.2-1-4.7-1.2c-1.5-0.2-2.8-0.2-3.9-0.1c-1.1,0.1-1.9,0.3-2.2,0.3c-6.7,1.2-13.4,6.4-20,15.9
		c-5.7,7.8-11.3,18.6-16.7,32.3c-2.3,5.6-4.3,11.3-6.2,17c-1.9,5.7-3.7,11.3-5.3,16.9c1-5.8,2.2-11.5,3.6-17.3
		c1.4-5.8,2.8-11.1,4.1-16c1.5-5.6,3.1-11,4.8-16.3c1.7-5.1,2.7-9.5,3.2-13.2c0.5-3.7,0.6-6.8,0.3-9.5c-0.3-2.6-0.8-4.8-1.6-6.4
		c-0.8-1.7-1.7-3-2.6-4c-1.6-1.5-3.4-2.5-5.5-2.9c-2.1-0.4-4.3-0.3-6.5,0.4c-4.4,1.4-9.1,6.1-14.2,14.2c-1.9,3.1-3.8,6.6-5.8,10.5
		c-2,3.9-3.9,8.3-5.8,13.1c-1.8,4.1-3.4,8.1-4.8,12c-1.4,3.9-2.6,7.3-3.7,10.3c-1,3-2.1,6.4-3.3,10.1c0,0.1-0.5,1.7-1.4,4.8
		c-1,3.1-2.4,7.1-4.2,12.2c-1.8,5-4.1,10.7-6.8,17.1c-2.7,6.4-5.9,12.9-9.4,19.7c-3.1,5.7-6.6,11.5-10.6,17.5
		c-4,6-8.4,11.6-13.2,16.7c-4.8,5.2-10.1,9.7-15.8,13.5c-5.7,3.9-11.8,6.5-18.2,7.9c-1.5,0.2-3.1,0.4-4.8,0.6
		c-1.4,0.1-3.1,0.2-4.9,0.4c-1.9,0.1-3.7,0.2-5.6,0.1c-6.6-0.5-12.3-2.1-17.1-4.8c-4.8-2.7-8.9-6.1-12.1-10.3
		c-3.2-4.2-5.6-9-7.2-14.4c-1.6-5.5-2.4-11.2-2.5-17.4c-0.1-4.2,0.2-8,0.8-11.5c0.6-3.5,1.5-6.6,2.5-9.3c1-2.7,2.2-5.1,3.4-7.2
		c1.2-2.1,2.3-3.8,3.4-5.1c1.2-1.5,2.5-2.8,3.8-3.9c1.3-1.1,2.5-2,3.5-2.8c0.7-0.5,1.5-0.9,2.2-1.4c0.8-0.5,1.6-1,2.4-1.4
		c2.1-1.3,3.5-2.5,4.1-3.7c0.7-1.2,1-2.4,0.9-3.5c-0.1-1.2-0.5-2.4-1.4-3.5c-0.8-0.9-1.7-1.5-2.7-1.9c-0.9-0.3-1.9-0.4-3.1-0.3
		c-1.1,0.1-2.4,0.8-3.8,1.9c-1.3,1.1-2.7,2.4-4.2,3.8c-1.3,1.3-2.7,2.8-4.3,4.6c-1.6,1.8-3.2,3.9-4.9,6.3c-0.9,1.3-1.8,2.7-2.5,4
		c-0.7,1.3-1.4,2.5-2,3.6c-0.6,1.3-1.2,2.5-1.7,3.6C81,298.1,80.1,300.8,79.3,303.5"/>
	<path class="st0" d="M383.7,117.5c-1.5,2.4-3.3,4.8-5.4,7.1c-2.1,2.3-4.4,4.5-7,6.4c-2.5,2-5.2,3.7-7.8,5.1c0.1-2.4,0.4-4.8,1-7.2
		c0.6-2.4,1.2-4.6,1.9-6.6c0.7-2.3,1.6-4.6,2.5-6.9c2.6-5.7,5.1-10.2,7.7-13.6c2.6-3.4,5.1-4.8,7.5-4.3c0.8,0.4,1.5,1.2,2.2,2.1
		c0.5,0.9,0.8,2.2,1,3.9c0.2,1.7,0,3.9-0.6,6.7C386.1,112.6,385.1,115,383.7,117.5 M364.9,145.5c-0.7-1.5-1.2-3.2-1.4-5
		c1.1-0.3,2.4-0.9,3.9-1.7c1.6-0.8,3.3-1.8,5.2-3c1.9-1.2,3.9-2.6,6-4.4c2.1-1.7,4.1-3.7,6.1-6c2.2-2.5,3.9-5.2,5.1-8
		c1.2-2.8,2-5.4,2.3-8l0-0.1c0.4-2.6,0.3-5-0.1-7c-0.4-2-0.8-3.7-1.4-5.2c-0.7-1.7-1.4-3.1-2.3-4.3c-0.7-0.7-1.3-1.3-2-1.7
		c-0.7-0.5-1.3-0.8-1.9-1.1c-0.7-0.3-1.3-0.5-1.9-0.8c-1.5-0.4-2.9-0.5-4.3-0.5c-1.3,0.1-2.5,0.3-3.6,0.6c-1.2,0.4-2.2,0.8-3.2,1.5
		c-1.5,0.8-2.9,1.9-4.4,3.3c-1.2,1.1-2.5,2.5-4,4.3c-1.5,1.8-2.9,3.9-4.2,6.3c-1.3,2.2-2.4,4.8-3.6,7.7c-0.9,2.5-1.8,5.4-2.6,8.8
		c-0.8,3.4-1.3,7.1-1.5,11c-0.3,5.4,0.1,9.7,1.1,13c1,3.3,2.4,5.8,4.1,7.4c1.6,1.2,3.2,2,4.9,2.5c1.7,0.5,3.8,0.6,6.3,0.5
		c2.5-0.1,5.6-0.9,9.2-2.3c3.5-1.4,6.6-3.3,9.3-5.6c2.7-2.4,5.1-4.8,7.1-7.3c2-2.5,3.7-4.8,4.9-6.9c1.2-2.1,2.1-3.7,2.6-4.7
		c1.1-2.1,1.9-3.8,2.6-5.2c0.3-0.8,0.6-1.5,0.9-2.2c0.7-1.8,1.4-3.7,2-5.6c0.6-1.9,1.2-3.7,1.6-5.2c0.6-1.9,1.1-3.7,1.6-5.4
		c0.3-1.1,0.2-1.8-0.2-2.3c-0.4-0.4-0.9-0.7-1.4-0.8c-0.4,0-0.8,0.3-1.2,0.9c-0.2,0.4-0.4,0.8-0.7,1.2c-0.8,1.7-1.6,3.7-2.4,5.8
		c-0.9,2.2-1.8,4.4-2.7,6.7c-0.9,2.1-1.8,4.2-2.8,6.3c-0.9,1.8-2,3.9-3.1,6.1c-1.2,2.2-2.4,4.3-3.7,6.3c-0.6,0.9-1.4,1.9-2.3,3
		c-0.9,1.2-2,2.4-3.3,3.6c-1.9,1.6-3.9,3-5.9,4.2c-1.7,1-3.6,1.8-5.6,2.5c-2,0.6-3.9,0.6-5.7,0C366.9,148.1,365.6,147.1,364.9,145.5
		 M353,59.2c-1.6,0.5-3,1.4-4.2,2.4c-1.5,1.2-2.9,2.8-4.2,4.6c-1.6,2.3-2.8,4.8-3.7,7.4c-0.9,2.7-1.5,5.3-1.8,7.8
		c-0.3,2.5-0.2,4.9,0.1,7.1c0.3,2.2,0.9,3.9,1.7,5.2c0.5,0.7,1.2,1.4,2.2,1.9c1,0.6,2,0.6,3,0.2c0.9-0.3,1.2-0.8,1-1.6
		c-0.1-0.4-0.2-0.8-0.4-1.1c-0.8-1.6-0.8-3.4-0.1-5.6c0.7-2.2,1.8-4.4,3.3-6.6c1.5-2.3,3.2-4.5,5-6.8c1.8-2.2,3.4-4.2,4.8-6
		c1-1.4,1.5-2.6,1.5-3.6c0-1.1-0.3-2-0.9-2.7c-0.6-0.9-1.5-1.6-2.6-2.2C356.2,58.8,354.6,58.7,353,59.2 M343,153.8
		c0.7-0.9,1.4-1.7,1.9-2.4c0.6-0.9,1.3-1.8,1.9-2.7c1.4-2.4,2.7-4.8,3.7-7.3c1.1-2.5,2-5,2.9-7.6c0.9-2.6,1.6-4.9,2.2-7.1
		c0.6-2.2,1-4.1,1.4-5.8c0.8-3.6,1.2-5.6,1.3-6.3c0-0.6-0.3-1-0.9-1.2c-0.2-0.1-0.4-0.1-0.6,0c-0.2,0-0.4,0.1-0.6,0.1l-0.3,0.1
		c-0.1,0-0.2,0.1-0.3,0.2c-0.5,0.9-1.1,2.3-1.7,4c-0.6,1.7-1.3,3.7-2,5.9c-0.8,2.2-1.7,4.6-2.6,7.2c-0.9,2.6-1.8,5.1-2.8,7.5
		c-0.6,1.3-1.1,2.4-1.6,3.6c-0.5,1.1-1.1,2.2-1.7,3.3c-0.6,1.2-1.2,2.3-1.9,3.3c-0.6,1-1.2,1.9-1.9,2.7c-0.6,0.9-1.3,1.5-1.9,1.9
		c-1,0.9-1.8,1.1-2.4,0.5c-0.5-0.6-0.9-1.2-1.2-1.9c-0.6-1.9-0.7-4.5-0.3-7.9c0.4-3.3,1-6.7,1.9-10.2c0.8-3.5,1.8-6.8,2.8-9.9
		c1-3.1,1.8-5.5,2.4-7.2c0.8-2,1.4-4,1.9-5.9c0.4-1.9,0.7-3.7,0.7-5.3c0-1.6-0.3-2.9-0.8-4.1c-0.5-1.1-1.4-1.8-2.6-2.1
		c-1.1-0.2-2.1,0-3,0.5c-0.9,0.5-1.7,1.1-2.4,1.8c-0.9,0.8-1.7,1.8-2.4,3c-1.1,1.7-2.2,3.8-3.4,6.5c-1.2,2.7-2.5,6.2-3.9,10.5
		c-1,3-1.7,6.4-2.2,10.3c-0.5,3.9-0.7,7.6-0.6,11.2c0.1,3.6,0.5,6.8,1.4,9.6c0.9,2.8,2.2,4.7,3.9,5.6c1.7,0.9,3.4,1.3,5,1.2
		c1.6,0,3-0.3,4.3-0.9c1.3-0.5,2.3-1.1,3-1.7c0.7-0.6,1.2-0.9,1.4-1.1C341.5,155.4,342.3,154.6,343,153.8 M288.2,150.7
		c-1,2.3-2.1,4.5-3.4,6.7c-0.8,1.5-1.6,2.9-2.5,4.2c-0.8,1.2-1.6,2.4-2.6,3.6c-1,1.2-2.1,2.3-3.3,3.2c-0.7,0.7-1.5,1.2-2.6,1.5
		c-1.1,0.3-1.9,0-2.7-1c-0.6-0.9-0.9-2.6-1-5.2c0-2.6,0.2-5.5,0.7-8.8c0.5-3.3,1.2-6.7,2.2-10.2c0.9-3.5,2-6.7,3.3-9.4
		c2.6-5.7,5.1-10.2,7.7-13.6c2.6-3.4,5-4.8,7.4-4.3c0.8,0.1,1.5,0.6,2.1,1.5c0.5,0.9,1,1.9,1.3,3c-0.2,1.2-0.3,2.3-0.4,3.4
		c-0.1,1.1-0.3,2.2-0.4,3.4c-0.5,3.4-0.8,6.9-1,10.4c-0.7,1.6-1.4,3.2-2,4.9C290.1,146.3,289.2,148.5,288.2,150.7 M293.6,155
		c0.2,1.3,0.5,2.6,0.9,3.9c0.4,1.3,0.8,2.4,1.4,3.4c0.6,1,1.3,1.7,2.2,2.1c2,1.1,3.9,1.5,5.7,1.2c1.8-0.3,3.4-0.7,4.7-1.3
		c2.9-1.2,5.4-3.3,7.6-6.3c2.1-2.9,4-5.9,5.5-8.9c1.7-3.5,3.2-7.3,4.5-11.3c0.6-1.8,1.3-3.6,1.9-5.6c0.7-1.9,1.2-3.7,1.7-5.2
		c0.6-1.9,1.1-3.7,1.6-5.4c0.3-1.1,0.2-1.8-0.3-2.3c-0.5-0.4-0.9-0.7-1.3-0.8c-0.4,0-0.8,0.3-1.2,0.9c-0.2,0.4-0.4,0.8-0.7,1.2
		c-0.8,1.7-1.6,3.9-2.5,6.7c-0.9,2.8-1.9,5.3-2.8,7.5c-1.4,3.8-2.9,7.4-4.5,10.7c-1.4,2.9-3,5.7-4.7,8.3c-1.7,2.7-3.5,4.6-5.3,5.8
		c-1,0.6-1.7,0.6-2.2,0c-0.5-0.6-0.9-1.2-1.1-1.8c-0.5-1.8-0.8-4-0.9-6.5c-0.1-2.5,0-5.1,0.3-7.9c0.3-2.8,0.6-5.7,1.1-8.6
		c0.4-3,0.9-5.8,1.4-8.6c1.2-6.6,2.8-13.5,4.8-20.6c0.6-2.3,1.4-4.8,2.2-7.4c0.8-2.6,1.6-5.1,2.3-7.4c0.7-2.7,1.5-5.4,2.4-8.1
		c1-3,1.9-5.7,2.8-8.1c0.9-2.4,1.7-4.5,2.4-6.3l2.2-5.6c0.7-1.8,1.4-3.6,1.9-5.4c0.5-1.8,0.9-3.5,1-5.1c0.1-1.6,0-2.9-0.3-4.1
		c-0.4-1.2-1-1.9-1.9-2.4c-1.2-0.5-2.4-0.6-3.4-0.2c-1,0.4-1.9,1-2.8,1.7c-1,0.8-1.9,1.8-2.7,3.1c-1.1,1.6-2.2,3.4-3.3,5.6
		c-1.1,2.1-2.3,4.9-3.6,8.4c-0.5,1.3-1.4,3.6-2.5,6.8s-2.4,7-3.8,11.4c-1.4,4.4-2.8,9.3-4.3,14.6c-1.5,5.3-2.7,10.7-3.8,16.3
		c-0.7-0.8-1.4-1.4-2-1.9c-0.7-0.5-1.3-1-1.9-1.4c-0.7-0.4-1.4-0.7-2.2-0.9c-1.5-0.4-2.9-0.5-4.3-0.5c-1.3,0.1-2.5,0.3-3.6,0.6
		c-1.2,0.4-2.2,0.8-3.2,1.5c-1.5,0.8-2.9,1.9-4.4,3.3c-1.2,1.1-2.5,2.5-4,4.3c-1.5,1.8-2.9,3.9-4.2,6.3c-1.4,2.2-2.5,4.8-3.6,7.7
		c-0.9,2.5-1.7,5.4-2.5,8.8c-0.7,3.4-1.3,7.1-1.5,11c-0.2,5.1,0.1,9.3,1,12.6c0.9,3.3,2.2,5.8,3.9,7.5c1.7,1.7,3.6,2.6,5.8,2.8
		c2.2,0.2,4.4-0.3,6.6-1.4c2.4-1.1,4.6-2.7,6.5-4.6c1.9-1.9,3.5-3.9,4.8-6c1.1-1.6,2-3.1,2.6-4.5c0.7-1.4,1.2-2.7,1.7-3.8
		c0.5-1.2,1-2.5,1.2-3.6C293.2,152.4,293.4,153.7,293.6,155 M222,181.6c-0.4-1.2-0.5-2.6-0.4-4.5c0.1-1.8,0.4-3.8,0.8-5.9
		c0.4-2.1,0.9-4.3,1.6-6.5c0.6-2.2,1.3-4.4,2-6.5c1.1,0.4,2.3,0.6,3.7,0.7c1.2,0.2,2.6,0.3,4.3,0.4c1.7,0.1,3.6,0.1,5.8-0.1
		c-1,3.8-2.4,7.5-4,11.2c-1.7,3.6-3.7,7-6,9.9c-0.4,0.5-0.8,1-1.2,1.5c-0.4,0.4-0.9,0.8-1.4,1.2c-0.5,0.4-1.1,0.6-1.7,0.7
		C223.7,183.9,222.6,183.2,222,181.6 M229,150.6c0.5-1.1,0.9-2,1.2-2.8c0.8-1.8,1.5-3.7,2.1-5.6c0.6-1.9,0.8-3.6,0.9-5.2
		c0-1.5-0.2-2.8-0.8-3.8c-0.5-1-1.4-1.6-2.7-1.9c-1.2-0.2-2.2,0.1-3.2,0.6c-1,0.6-1.9,1.2-2.7,1.9c-1,0.8-1.8,1.8-2.5,2.8
		c-0.9,1.1-1.8,2.4-2.6,4c-0.9,1.5-1.8,3.3-2.8,5.4c-1-1.7-1.6-3.6-1.9-5.5c-0.3-1.9-0.3-3.8,0-5.6c0.3-1.8,0.8-3.4,1.5-4.9
		c0.7-1.5,1.6-2.7,2.6-3.5c0.8-0.6,1.7-1.1,2.7-1.7c0.8-0.4,1.9-0.7,3.1-1.1c1.2-0.3,2.5-0.4,4-0.3c0.6,0.1,1.5,0.3,2.6,0.6
		c1.1,0.3,2.3,0.8,3.5,1.6c1.2,0.7,2.5,1.7,3.7,3.1c1.2,1.3,2.1,3,2.8,5.2c1,2.8,1.5,6,1.5,9.8c0,3.7-0.4,7.7-1.2,11.7
		c-1.9,0.2-3.7,0.3-5.3,0.2c-1.7,0-3.1-0.2-4.3-0.5c-1.4-0.1-2.6-0.3-3.8-0.7C228,152.9,228.5,151.7,229,150.6 M249.2,130
		c-0.9-2-2.2-3.7-3.8-5.2c-1.6-1.5-3.6-2.8-5.9-3.7c-2.3-0.9-5.1-1.5-8.4-1.6c-2.6-0.1-5.1,0.2-7.7,0.9c-2.1,0.6-4.4,1.5-6.7,2.8
		c-2.3,1.3-4.3,3.2-5.8,5.7c-1,1.6-1.8,3.3-2.3,5.3c-0.5,2-0.8,4-0.7,6.1c0.1,2.1,0.6,4.2,1.4,6.2c0.9,2.1,2.2,3.9,4,5.6
		c-0.4,0.8-0.8,1.8-1.2,3c-0.3,1-0.6,2.2-1,3.7c-0.3,1.5-0.6,3.1-0.9,4.9c-0.3,2.5-0.4,5-0.4,7.5c0,2.5,0.3,4.8,0.7,6.8
		c0.4,2.1,1.1,3.8,1.9,5.4c0.8,1.5,1.9,2.5,3.2,3.1c1.4,0.6,2.7,1,4.1,1c1.3,0.1,2.6,0.1,3.9,0c1.1,0,2.2-0.2,3.1-0.5
		c1-0.3,1.8-0.6,2.6-1c0.8-0.4,1.6-0.8,2.4-1.1c2.2-1.4,4-2.9,5.5-4.4c1.5-1.6,2.5-2.6,2.9-3.1c1.8-2,3.7-4.6,5.6-7.7
		c1.9-3.1,3.5-6.9,4.8-11.3c2.5-0.3,4.7-0.8,6.8-1.5c2-0.6,3.8-1.3,5.4-1.9c1.7-0.8,3.3-1.6,4.9-2.4c0.3-0.9,0.5-1.6,0.6-2.1
		c0.1-0.5,0.1-0.9-0.1-1.1c-0.1-0.2-0.6-0.1-1.3,0.3c-0.7,0.5-1.7,1-3.1,1.5c-1.3,0.5-2.7,1-4.1,1.5c-1.4,0.5-2.9,0.9-4.3,1.3
		c-1.5,0.4-2.7,0.6-3.7,0.6c0.6-3.1,0.8-5.8,0.8-8.2c0-2.4-0.1-4.3-0.2-5.8c-0.2-1.8-0.5-3.3-0.8-4.6
		C250.8,133.9,250.1,131.9,249.2,130 M214.8,94.9c-1.2,1.2-2.7,2.4-4.5,3.7c-1.8,1.3-4,2.4-6.5,3.2c2.5-6.8,4.8-12,6.7-15.6
		c1.9-3.6,3.6-6.2,4.9-7.7c1.4-1.5,2.5-2.3,3.3-2.4c0.9-0.1,1.5-0.1,1.8,0.1c0.8,0.7,1.2,1.6,1.2,2.8c0,1.1-0.2,2.6-0.6,4.4
		c-0.4,1.8-1.4,4.2-3.1,7.1C217.2,92.1,216.1,93.5,214.8,94.9 M213.8,157.6c0.7-1.9,1.2-3.7,1.7-5.2c0.6-1.9,1.1-3.7,1.6-5.4
		c0.3-1.1,0.2-1.8-0.3-2.3c-0.5-0.4-0.9-0.7-1.3-0.8c-0.4,0-0.8,0.3-1.2,0.9c-0.2,0.4-0.4,0.8-0.7,1.2c-0.8,1.7-1.6,3.7-2.4,5.8
		c-0.9,2.2-1.8,4.4-2.7,6.7c-1.8,4.2-3.6,8.1-5.5,11.7c-1.7,3-3.5,6-5.5,8.9c-2,2.9-4,4.9-6.1,6.1c-1,0.6-1.7,0.6-2.2,0
		c-0.5-0.6-0.9-1.2-1.1-1.8c-0.5-1.8-0.8-4-0.9-6.5c-0.1-2.5,0-5.1,0.3-7.9c0.3-2.8,0.6-5.7,1.1-8.6c0.4-3,0.9-5.8,1.4-8.6
		c1.2-6.6,2.8-13.5,4.8-20.6c0.6-2.3,1.4-4.8,2.2-7.4c0.8-2.6,1.6-5.1,2.3-7.4c0.7-2.7,1.5-5.4,2.4-8.1c5.3-1.6,9.5-3.8,12.7-6.4
		c3.2-2.6,5.6-5.3,7.4-8.1c2-3.1,3.4-6.4,4.2-9.8c0.5-3.3,0.6-6,0.1-8c-0.4-2.1-1.1-3.7-1.8-4.8c-0.9-1.3-2-2.3-3.2-2.8
		c-1-0.4-2-0.6-3.1-0.5c-1.1,0.1-2,0.3-2.9,0.5c-1.1,0.3-2,0.8-2.9,1.4c-1.8,1.1-3.7,2.9-5.6,5.2c-1.9,2.4-3.9,5.2-6,8.5
		c-2.1,3.3-4.1,7-6,11.2c-2,4.1-3.9,8.4-5.7,12.9c-1.5,0.4-3.2,0.9-5.1,1.4c-1.6,0.5-3.5,0.9-5.6,1.4c-2.1,0.5-4.4,1-6.9,1.4
		c-5.2,0.9-9.6,1.8-13.1,2.6c-3.5,0.8-6.3,1.5-8.5,2.2c-2.5,0.8-4.5,1.6-6.1,2.2c-3.1,1.5-5.7,3-7.9,4.7c-1.8,1.5-3.3,3.3-4.4,5.3
		c-1.1,2-1.1,4.1,0.2,6.4c0.7,1.2,1.5,2,2.5,2.5c0.9,0.4,2,0.6,3.2,0.5c1.2-0.1,2.7-0.9,4.4-2.4c1.3-1.1,2.7-2.6,4.2-4.5
		c1.5-1.9,3.3-3.8,5.3-5.8s4.5-3.8,7.3-5.5c2.8-1.7,6.3-2.9,10.4-3.7c1.9-0.3,3.9-0.7,6.1-1.1c2.2-0.4,4.1-0.8,5.9-1.2
		c2.1-0.3,4.1-0.7,6.2-1.2c-2.9,7.9-5.1,15.8-6.6,23.6c-0.4,1.9-0.8,4.2-1.3,6.9c-0.5,2.7-0.9,5.6-1.3,8.8c-0.4,3.2-0.7,6.4-1,9.8
		c-0.3,3.4-0.4,6.7-0.5,9.9c0,2.8,0.2,5.4,0.6,7.9c0.4,2.1,0.9,4.1,1.6,6c0.7,1.9,1.8,3.3,3.2,4c2,1.1,3.9,1.5,5.7,1.2
		c1.8-0.3,3.4-0.7,4.7-1.3c2.9-1.2,5.6-3.3,8-6.2c2.4-2.9,4.5-5.9,6.3-8.9c2-3.5,3.9-7.3,5.7-11.4
		C212.5,161.4,213.2,159.5,213.8,157.6 M112.7,120.5c-0.4-1.4-0.8-2.7-1.1-3.6c1.2-0.6,2.4-1.1,3.6-1.7c1.2-0.6,2.4-1.1,3.7-1.7
		c-0.8,1.9-1.6,3.9-2.5,5.9c-0.8,2-1.7,4.1-2.6,6.3C113.5,123.7,113.1,121.9,112.7,120.5 M61.8,91.7c0.8-0.1,1.7-0.2,2.8-0.3
		c1.1-0.1,2.1-0.2,3.3-0.2c1.5,0,3.2,0.1,5.1,0.3c1.9,0.2,3.9,0.6,5.9,1.2c2.1,0.6,4.2,1.4,6.2,2.5c2.1,1.1,4,2.6,5.9,4.4
		c1,0.9,2.1,2.1,3.2,3.5c1,1.2,2,2.8,3.2,4.6c1.1,1.9,2.2,4.1,3.3,6.6c-5.5,1.8-11,3.3-16.7,4.5c-5.7,1.2-11.5,1.8-17.3,2
		c-4.5,0.1-8.6-0.2-12.2-0.9c-3.1-0.6-6-1.6-8.8-3c-2.8-1.4-4.5-3.6-5.1-6.4c-0.4-1.5-0.4-3.2,0-4.9c0.4-1.5,1.2-3.1,2.4-4.7
		c1.2-1.6,3.2-3.2,6-4.8c0.8-0.4,1.8-0.8,2.8-1.2c0.8-0.4,1.9-0.8,3-1.2c1.2-0.4,2.6-0.8,4.1-1.1L61.8,91.7z M102.1,213.6
		c0.7-5.2,1.6-10.6,2.8-16.3c1.2-5.7,2.7-11.6,4.3-17.6c1.7-6.1,3.5-12.1,5.4-18.2c4.7-2.5,9.4-4.6,14-6.5c4.6-1.9,8.7-2.8,12.3-2.8
		c1.6,0.1,3.1,0.3,4.6,0.7c1.2,0.5,2.5,1.1,3.9,1.9c1.4,0.8,2.5,2.1,3.4,3.7c0.3,1.2,1,1.8,2.2,1.8c1.7-0.1,2.6-0.9,2.7-2.6
		c0.1-5.5-1.8-9.4-5.9-11.8c-3.6-2.1-8.4-2.6-14.3-1.5c-5.5,1-11.5,3.5-17.9,7.4c-0.5,0.2-1.2,0.6-2,1.2c3-9.1,6-17.8,9.2-26.1
		c3.2-8.3,6.1-15.9,8.9-22.6c0.6-0.3,2.3-1.3,5-2.9c2.7-1.6,5.8-3.3,9.2-5.3c3.5-2,7.1-4.1,11-6.2c3.8-2.2,7.3-4.1,10.3-5.8
		c3-1.7,6.7-3.4,10.9-5.1c4.3-1.7,8.6-3.1,13.2-4.2c4.5-1.1,9-1.7,13.4-2c4.4-0.2,8.2,0.3,11.5,1.5c1.5,0.8,2.9,1.5,4.1,2.1
		c1.2,0.6,2.3,1.1,3.3,1.4c1.6,0.5,3,0.6,4,0.5c1.1-0.1,1.9-0.4,2.7-0.9c0.4-0.3,0.8-0.7,1.2-1.2c0.4-0.5,0.6-0.9,0.7-1.4
		c0.2-0.5,0.3-1,0.4-1.6c0.2-2.1-0.4-3.8-1.7-5.2c-1.3-1.4-2.8-2.4-4.6-3.2c-1.8-0.8-3.7-1.4-5.6-1.7c-1.9-0.4-3.5-0.6-4.6-0.8
		c-1.6-0.2-3.3-0.2-5-0.1c-1.8,0.1-3,0.1-3.6,0.2c-3.8,0.1-8.3,0.9-13.7,2.3c-6.9,1.9-14,4.7-21.4,8.4c-7.4,3.7-15.5,8.6-24.4,14.6
		c-2.4,1.7-4.8,3.3-7.2,5c-2.1,1.4-4.4,2.8-7,4.4c-2.6,1.5-5.1,3-7.5,4.3c-2.2,1.2-4.5,2.4-6.8,3.5c-2,0.9-4.1,2-6.6,3
		c-2.4,1.1-4.8,2-7.1,2.8c-3.1-8.6-8.6-15-16.5-19.4c-3.9-2.1-8.1-3.7-12.8-4.6c-4.7-0.9-9.5-1.2-14.4-0.9
		c-8.4,0.6-15.7,2.7-21.8,6.4c-3.3,2-5.7,4.3-7.5,6.7c-2.2,2.6-3.4,5.6-3.6,8.8c-0.4,3.7,0.1,7,1.6,10.1c1.5,3,3.9,5.5,7.2,7.5
		c4.1,2.5,9.4,3.9,15.9,4.3c6.4,0.4,13.8-0.3,22-2.1c2.7-0.6,5.5-1.2,8.2-1.9c2.3-0.6,4.8-1.3,7.5-2.2c2.7-0.8,5.2-1.9,7.5-3.1
		c1,3.6,1.7,7.7,2.2,12.3c0.5,4.6,0.5,9.8,0,15.7c-0.9,2.8-1.8,5.5-2.7,8.1c-0.9,2.6-1.7,5.2-2.5,7.7c-2.9,1.9-5.2,3.4-6.9,4.6
		c-1.7,1.2-2.7,1.8-2.8,1.8c-0.6,0.3-1,0.9-1.1,1.6c-0.1,0.7,0.1,1.3,0.5,2c0.3,0.4,0.7,0.8,1.1,1c0.5,0.2,0.9,0.3,1.4,0.2
		c0.2,0,0.4-0.1,0.5-0.2c0.1-0.1,0.3-0.1,0.5-0.2c0-0.1,0.4-0.4,1.2-0.9c0.8-0.5,1.9-1.3,3.2-2.2c-1.3,4.7-2.5,9.2-3.5,13.4
		c-1,4.2-1.8,8.2-2.4,12.1c-1.6,8.4-2.2,16-2,22.8c0.2,7.5,1.4,13.6,3.7,18.4c2.2,4.6,5.3,8.1,9.2,10.3c0.8,0.4,1.8,0.9,3.1,1.3
		c1.2,0.5,2.7,0.8,4.3,1.1c1.6,0.3,3.5,0.3,5.5,0.1c2-0.2,4.2-0.7,6.4-1.6c4.3-1.9,9.2-5.2,14.6-9.9l0.1-0.2
		c2.3-2.2,4.4-4.3,6.4-6.1c2-1.8,4.3-3.8,6.9-6c2.6-2.2,5.5-4.4,8.6-6.6c0.6-0.4,1.2-0.9,1.8-1.3c0.6-0.4,1.2-0.8,1.8-1.2
		c3.2-1.9,6.3-3.1,9.5-3.5c3.1-0.4,6.1-0.5,8.8-0.2c2.7,0.3,5.3,0.7,7.6,1.4c2.3,0.6,4.3,1,5.9,1.2c2.2,0.2,3.9,0.1,5-0.6
		c1.1-0.6,1.9-1.4,2.4-2.3c0.5-1,0.7-2.2,0.6-3.5c-0.3-2.3-1.4-4-3.3-5.1c-1.9-1.1-3.9-1.8-6.2-2.1c-4.7-0.8-10.1-0.2-16.2,1.8
		c-0.5,0.1-1,0.3-1.5,0.5c-0.5,0.2-1.1,0.4-1.6,0.7c-1.6,0.7-3.4,1.4-5.3,2.4c-1.9,0.9-3.8,2-5.7,3.2c-1.1,0.7-2.2,1.5-3.3,2.2
		c-1.1,0.7-2.3,1.5-3.4,2.4c-2.7,1.9-5.2,3.8-7.5,5.7c-2.4,1.9-4.5,3.7-6.5,5.5c-5.3,4.5-9.9,7.9-13.7,10.1
		c-3.9,2.2-7.3,3.6-10.1,4.2c-2.5,0.6-4.7,0.7-6.5,0.3c-1.8-0.3-3.2-0.9-4.3-1.6c-1.1-0.7-2-1.5-2.5-2.3c-0.5-0.8-0.9-1.3-1-1.6
		c-0.5-1-0.9-2.1-1.2-3.1c-0.3-1.1-0.5-2.1-0.6-3c-0.1-1.1-0.2-2.2-0.2-3.2C101.1,223.5,101.4,218.8,102.1,213.6"/>
</g>
</svg>
