<?xml version="1.0" encoding="utf-8"?>
<!-- Generator: Adobe Illustrator 19.2.1, SVG Export Plug-In . SVG Version: 6.00 Build 0)  -->
<svg version="1.1" id="Calque_2" xmlns="http://www.w3.org/2000/svg" xmlns:xlink="http://www.w3.org/1999/xlink" x="0px" y="0px"
	 viewBox="0 0 159.5 156.8" style="enable-background:new 0 0 159.5 156.8;" xml:space="preserve">
<style type="text/css">
	.st0{fill:#F6A83C;}
	.st1{clip-path:url(#SVGID_2_);}
	.st2{clip-path:url(#SVGID_4_);}
	.st3{opacity:0.8;}
	.st4{clip-path:url(#SVGID_6_);fill:#F6A83C;}
	.st5{clip-path:url(#SVGID_12_);}
	.st6{clip-path:url(#SVGID_13_);}
	.st7{clip-path:url(#SVGID_14_);}
	.st8{clip-path:url(#SVGID_15_);}
	.st9{clip-path:url(#SVGID_16_);fill:#FFFFFF;}
	.st10{clip-path:url(#SVGID_18_);fill:#FFFFFF;}
</style>
<rect x="-14" y="-16.1" class="st0" width="191" height="192"/>
<g>
	<g>
		<g>
			<defs>
				<rect id="SVGID_1_" x="29.3" y="26.3" width="102.2" height="102.2"/>
			</defs>
			<clipPath id="SVGID_2_">
				<use xlink:href="#SVGID_1_"  style="overflow:visible;"/>
			</clipPath>
			<g class="st1">
				<g>
					<g>
						<defs>
							<rect id="SVGID_3_" x="29.3" y="26.3" width="102.2" height="102.2"/>
						</defs>
						<clipPath id="SVGID_4_">
							<use xlink:href="#SVGID_3_"  style="overflow:visible;"/>
						</clipPath>
						<g class="st2">
							<g>
								<g class="st3">
									<g>
										<defs>
											<rect id="SVGID_5_" x="21.2" y="20.1" width="118.3" height="109.3"/>
										</defs>
										<clipPath id="SVGID_6_">
											<use xlink:href="#SVGID_5_"  style="overflow:visible;"/>
										</clipPath>
										<path class="st4" d="M80.4,128.5c28.2,0,51.1-22.9,51.1-51.1s-22.9-51.1-51.1-51.1S29.3,49.2,29.3,77.4
											S52.1,128.5,80.4,128.5"/>
									</g>
								</g>
								<g>
									<g>
										<defs>
											<rect id="SVGID_7_" x="29.3" y="26.3" width="102.2" height="102.2"/>
										</defs>
										<defs>
											<rect id="SVGID_8_" x="29.3" y="26.3" width="102.2" height="102.2"/>
										</defs>
										<defs>
											<rect id="SVGID_9_" x="29.3" y="26.3" width="102.2" height="102.2"/>
										</defs>
										<defs>
											<rect id="SVGID_10_" x="29.3" y="26.3" width="102.2" height="102.2"/>
										</defs>
										<defs>
											<rect id="SVGID_11_" x="29.3" y="26.3" width="102.2" height="102.2"/>
										</defs>
										<clipPath id="SVGID_12_">
											<use xlink:href="#SVGID_7_"  style="overflow:visible;"/>
										</clipPath>
										<clipPath id="SVGID_13_" class="st5">
											<use xlink:href="#SVGID_8_"  style="overflow:visible;"/>
										</clipPath>
										<clipPath id="SVGID_14_" class="st6">
											<use xlink:href="#SVGID_9_"  style="overflow:visible;"/>
										</clipPath>
										<clipPath id="SVGID_15_" class="st7">
											<use xlink:href="#SVGID_10_"  style="overflow:visible;"/>
										</clipPath>
										<clipPath id="SVGID_16_" class="st8">
											<use xlink:href="#SVGID_11_"  style="overflow:visible;"/>
										</clipPath>
										<path class="st9" d="M86.8,85.5c-1.3,0-3-0.6-3.9-1.1l-0.8,3.2c1.1,0.6,2.8,1,4.7,1c4.1,0,6.3-2,6.3-4.7
											c0-2.1-1.2-3.5-3.9-4.5c-1.8-0.6-2.3-1-2.3-1.7s0.6-1.2,1.7-1.2c1.2,0,2.5,0.5,3.1,0.8l0.8-3.1c-0.9-0.4-2.4-0.8-4.1-0.8
											c-3.6,0-5.9,2-5.9,4.7c0,1.7,1.1,3.3,4.1,4.3c1.7,0.6,2.1,0.9,2.1,1.7C88.7,85,88.2,85.5,86.8,85.5"/>
										<path class="st9" d="M72.1,71.9c0.3-0.1,0.9-0.2,1.9-0.2c2.3,0,3.5,1.1,3.5,2.9c0,2-1.5,3.3-3.9,3.3c-0.6,0-1.1,0-1.5-0.1
											V71.9z M72.1,81.2c0.4,0.1,1,0.1,1.5,0.1c2.7,0,4.9-0.6,6.5-2.1c1.2-1.1,1.8-2.8,1.8-4.7c0-2-0.8-3.6-2.1-4.6
											c-1.3-1.1-3.3-1.6-6.1-1.6c-2.7,0-4.7,0.2-6.1,0.4v19.7h4.5C72.1,88.4,72.1,81.2,72.1,81.2z"/>
									</g>
									<g>
										<g>
											<defs>
												<rect id="SVGID_17_" x="29.3" y="26.3" width="102.2" height="102.2"/>
											</defs>
											<clipPath id="SVGID_18_">
												<use xlink:href="#SVGID_17_"  style="overflow:visible;"/>
											</clipPath>
											<path class="st10" d="M97.8,95.9H62.9V61h34.9V95.9z M60.5,98.4h39.8V58.6H60.5V98.4z"/>
										</g>
									</g>
								</g>
							</g>
						</g>
					</g>
				</g>
			</g>
		</g>
	</g>
</g>
</svg>
