<?xml version="1.0" encoding="utf-8"?>
<!-- Generator: Adobe Illustrator 19.2.1, SVG Export Plug-In . SVG Version: 6.00 Build 0)  -->
<svg version="1.1" id="Calque_1" xmlns="http://www.w3.org/2000/svg" xmlns:xlink="http://www.w3.org/1999/xlink" x="0px" y="0px"
	 viewBox="0 0 159.5 156.8" style="enable-background:new 0 0 159.5 156.8;" xml:space="preserve">
<style type="text/css">
	.st0{clip-path:url(#SVGID_2_);fill:none;stroke:#72C4BF;stroke-width:3;}
	.st1{clip-path:url(#SVGID_2_);fill:#72C4BF;}
	.st2{clip-path:url(#SVGID_2_);fill:none;stroke:#72C4BF;stroke-width:1.015;}
	.st3{fill:#FFFFFF;}
</style>
<g>
	<defs>
		<rect id="SVGID_1_" x="29.4" y="27.6" width="101.6" height="101.6"/>
	</defs>
	<clipPath id="SVGID_2_">
		<use xlink:href="#SVGID_1_"  style="overflow:visible;"/>
	</clipPath>
	<circle class="st0" cx="80.2" cy="78.4" r="49.3"/>
	<path class="st1" d="M80.2,123c24.7,0,44.7-20,44.7-44.7c0-24.7-20-44.7-44.7-44.7s-44.7,20-44.7,44.7C35.6,103,55.6,123,80.2,123"
		/>
	<circle class="st2" cx="80.2" cy="78.4" r="44.7"/>
</g>
<g>
	<path class="st3" d="M82.1,75.7c-0.3-0.3-0.7-0.6-1.1-0.7c-0.4-0.2-0.8-0.2-1.3-0.2c-0.5,0-0.9,0.1-1.3,0.2
		c-0.4,0.2-0.8,0.4-1.1,0.7c-0.3,0.3-0.6,0.7-0.7,1.1c-0.2,0.4-0.3,0.8-0.3,1.3c0,0.5,0.1,0.9,0.3,1.3c0.2,0.4,0.4,0.8,0.7,1.1
		c0.3,0.3,0.7,0.6,1.1,0.7c0.4,0.2,0.8,0.2,1.3,0.2c0.5,0,0.9-0.1,1.3-0.2c0.4-0.2,0.8-0.4,1.1-0.7c0.3-0.3,0.6-0.7,0.7-1.1
		c0.2-0.4,0.3-0.8,0.3-1.3c0-0.5-0.1-0.9-0.3-1.3C82.7,76.4,82.5,76,82.1,75.7 M84.8,73.1c-0.7-0.7-1.5-1.2-2.3-1.6
		c-0.8-0.4-1.8-0.5-2.7-0.5c-1,0-1.9,0.2-2.7,0.5c-0.9,0.4-1.7,0.9-2.3,1.6c-0.7,0.7-1.2,1.5-1.6,2.3c-0.3,0.8-0.5,1.8-0.5,2.7
		c0,1,0.2,1.9,0.5,2.7c0.4,0.9,0.9,1.7,1.6,2.3c0.7,0.7,1.5,1.2,2.3,1.6c0.8,0.4,1.8,0.5,2.7,0.5c1,0,1.9-0.2,2.7-0.5
		c0.9-0.4,1.7-0.9,2.3-1.6c0.7-0.7,1.2-1.5,1.6-2.3c0.3-0.8,0.5-1.8,0.5-2.7c0-1-0.2-1.9-0.5-2.7C86,74.5,85.5,73.7,84.8,73.1
		 M79.7,67.5c1.4,0,2.8,0.3,4.1,0.8h0c1.3,0.5,2.5,1.3,3.4,2.3h0c1,1,1.8,2.1,2.3,3.4c0.5,1.3,0.8,2.6,0.8,4.1
		c0,1.4-0.3,2.8-0.8,4.1c-0.5,1.3-1.3,2.5-2.3,3.4h0c-1,1-2.1,1.8-3.4,2.3h0c-1.3,0.5-2.6,0.8-4.1,0.8c-1.4,0-2.8-0.3-4.1-0.8
		c-1.3-0.5-2.5-1.3-3.4-2.3h0c-1-1-1.8-2.1-2.3-3.4c-0.5-1.2-0.8-2.6-0.8-4.1c0-1.4,0.3-2.8,0.8-4.1c0.5-1.3,1.3-2.5,2.3-3.4h0
		c1-1,2.1-1.8,3.4-2.3C76.9,67.8,78.3,67.5,79.7,67.5 M79.7,73.1c0.7,0,1.3,0.1,1.9,0.4l0,0c0.6,0.2,1.2,0.6,1.7,1.1
		c0.5,0.5,0.8,1,1.1,1.6c0.2,0.6,0.4,1.2,0.4,1.9c0,0.7-0.1,1.3-0.4,1.9c-0.3,0.6-0.6,1.2-1.1,1.6c-0.5,0.5-1,0.8-1.7,1.1h0
		c-0.6,0.3-1.3,0.4-1.9,0.4c-0.7,0-1.3-0.1-1.9-0.4c-0.6-0.2-1.2-0.6-1.6-1.1c-0.5-0.5-0.8-1-1.1-1.6c-0.2-0.6-0.4-1.3-0.4-1.9
		c0-0.7,0.1-1.3,0.4-1.9c0.3-0.6,0.6-1.2,1.1-1.6c0.5-0.5,1-0.8,1.6-1.1v0C78.4,73.2,79,73.1,79.7,73.1 M83.7,65.2h-7.6l1.2-4
		l5.1-0.1L83.7,65.2z M61.5,65.2c-1.3,0.1-2.3,1.2-2.3,2.6v20.6c0,1.4,1.2,2.6,2.6,2.6h36.1c1.4,0,2.6-1.2,2.6-2.6V67.8
		c0-1.3-1-2.4-2.3-2.6h-0.2l-0.3-1.6c-0.1-0.6-0.6-1-1.2-1h-3.7H89c-0.6,0-1.1,0.4-1.2,1l-0.3,1.6h-0.7l-1.7-6
		c-0.2-0.7-0.8-1.2-1.5-1.2l-7.3,0.1c-0.7,0-1.4,0.4-1.6,1.1l-1.8,6h-0.8l-0.3-1.6c-0.1-0.6-0.6-1-1.2-1H67h-3.6
		c-0.6,0-1.1,0.4-1.2,1l-0.3,1.6H61.5z"/>
</g>
</svg>
