<?xml version="1.0" encoding="utf-8"?>
<!-- Generator: Adobe Illustrator 19.2.1, SVG Export Plug-In . SVG Version: 6.00 Build 0)  -->
<svg version="1.1" id="Calque_1" xmlns="http://www.w3.org/2000/svg" xmlns:xlink="http://www.w3.org/1999/xlink" x="0px" y="0px"
	 viewBox="0 0 159.5 156.8" style="enable-background:new 0 0 159.5 156.8;" xml:space="preserve">
<style type="text/css">
	.st0{clip-path:url(#SVGID_2_);fill:none;stroke:#F7A93C;stroke-width:3;}
	.st1{clip-path:url(#SVGID_2_);fill:#F7A93C;}
	.st2{clip-path:url(#SVGID_2_);fill:none;stroke:#F7A93C;stroke-width:1.015;}
	.st3{fill:#FFFFFF;}
</style>
<g>
	<defs>
		<rect id="SVGID_1_" x="29.4" y="27.4" width="101.6" height="101.6"/>
	</defs>
	<clipPath id="SVGID_2_">
		<use xlink:href="#SVGID_1_"  style="overflow:visible;"/>
	</clipPath>
	<circle class="st0" cx="80.2" cy="78.2" r="49.3"/>
	<path class="st1" d="M80.2,122.8c24.7,0,44.7-20,44.7-44.7c0-24.7-20-44.7-44.7-44.7s-44.7,20-44.7,44.7
		C35.6,102.8,55.6,122.8,80.2,122.8"/>
	<circle class="st2" cx="80.2" cy="78.2" r="44.7"/>
</g>
<g>
	<defs>
		<rect id="SVGID_3_" x="29.4" y="27.4" width="101.6" height="101.6"/>
	</defs>
	<clipPath id="SVGID_4_">
		<use xlink:href="#SVGID_3_"  style="overflow:visible;"/>
	</clipPath>
</g>
<path class="st3" d="M70.5,79.8c-3.3,0-6-2.7-6-6c0-3.3,2.7-6,6-6s6,2.7,6,6C76.5,77.1,73.8,79.8,70.5,79.8 M76.5,83.4
	c0.9-0.6,1.7-1.3,2.4-2.1l2.6,1.5l2.3-4l-2.6-1.5c0.3-1,0.5-2,0.6-3.1l2.9-0.5l-0.8-4.6L81,69.6c-0.4-1-0.9-1.9-1.6-2.8l1.9-2.3
	l-3.6-3l-1.9,2.3c-0.9-0.5-1.9-0.9-3-1.1v-3h-4.7v3c-1.1,0.2-2.1,0.6-3,1.1l-1.9-2.3l-3.6,3l1.9,2.3c-0.7,0.8-1.2,1.8-1.6,2.8
	l-2.9-0.5l-0.8,4.6l2.9,0.5c0,1.1,0.2,2.1,0.6,3.1l-2.6,1.5l2.3,4l2.6-1.5c0.7,0.8,1.5,1.5,2.4,2.1l-1,2.8l4.4,1.6l1-2.8
	c0.5,0.1,1.1,0.1,1.6,0.1c0.5,0,1.1,0,1.6-0.1l1,2.8l4.4-1.6L76.5,83.4z"/>
<path class="st3" d="M88.1,95.8c-2.3,0.3-4.5-1.3-4.8-3.6c-0.3-2.3,1.3-4.5,3.6-4.8c2.3-0.3,4.5,1.3,4.8,3.6
	C92.1,93.4,90.5,95.5,88.1,95.8 M96.6,86.9l-2,0.7c-0.4-0.7-0.9-1.3-1.4-1.8l1.1-1.8l-2.8-1.8L90.3,84c-0.7-0.3-1.5-0.4-2.2-0.5
	l-0.3-2.1l-3.3,0.5l0.3,2.1c-0.7,0.3-1.4,0.6-2,1.1l-1.6-1.4L79,86.1l1.6,1.4c-0.4,0.7-0.7,1.4-0.9,2.1l-2.1-0.1l-0.1,3.3l2.1,0.1
	c0.1,0.8,0.4,1.5,0.7,2.2l-1.7,1.3l2.1,2.6l1.7-1.3c0.6,0.5,1.2,0.9,1.9,1.2l-0.4,2.1l3.3,0.7l0.4-2.1c0.4,0,0.8,0,1.1-0.1
	c0.4-0.1,0.8-0.1,1.1-0.2l1,1.9l3-1.6l-1-1.9c0.6-0.5,1.1-1.1,1.5-1.7l2,0.8l1.3-3.1l-2-0.8c0.1-0.7,0.2-1.5,0.1-2.3l2-0.7
	L96.6,86.9z"/>
<path class="st3" d="M94.8,76.8c-1.6,0.9-3.7,0.3-4.6-1.4c-0.9-1.6-0.3-3.7,1.4-4.6c1.6-0.9,3.7-0.3,4.6,1.4
	C97.1,73.8,96.4,75.9,94.8,76.8 M101.1,75.3l0.1-2.6l-1.7,0c-0.1-0.6-0.3-1.2-0.6-1.7l1.3-1l-1.6-2.1l-1.3,1c-0.5-0.4-1-0.7-1.5-0.9
	l0.3-1.6l-2.6-0.5l-0.3,1.6c-0.6,0-1.2,0.1-1.8,0.3l-0.8-1.5l-2.3,1.3l0.8,1.5c-0.5,0.4-0.9,0.9-1.2,1.3l-1.6-0.6l-1,2.5l1.6,0.6
	c-0.1,0.6-0.1,1.2-0.1,1.8L85.3,75l0.8,2.5l1.6-0.5c0.3,0.5,0.7,1,1.1,1.4l-0.9,1.4l2.2,1.4l0.9-1.4c0.6,0.2,1.2,0.3,1.8,0.4
	l0.2,1.7l2.6-0.4l-0.2-1.7c0.3-0.1,0.6-0.2,0.8-0.4c0.3-0.1,0.5-0.3,0.8-0.5l1.2,1.1l1.8-2L98.8,77c0.3-0.5,0.5-1.1,0.7-1.7
	L101.1,75.3z"/>
</svg>
