<?xml version="1.0" encoding="utf-8"?>
<!-- Generator: Adobe Illustrator 19.2.1, SVG Export Plug-In . SVG Version: 6.00 Build 0)  -->
<svg version="1.1" id="Calque_1" xmlns="http://www.w3.org/2000/svg" xmlns:xlink="http://www.w3.org/1999/xlink" x="0px" y="0px"
	 viewBox="0 0 159.5 156.8" style="enable-background:new 0 0 159.5 156.8;" xml:space="preserve">
<style type="text/css">
	.st0{clip-path:url(#SVGID_2_);fill:none;stroke:#72C4BF;stroke-width:3;}
	.st1{clip-path:url(#SVGID_2_);fill:#72C4BF;}
	.st2{clip-path:url(#SVGID_2_);fill:none;stroke:#72C4BF;stroke-width:1.015;}
	.st3{fill:#FFFFFF;}
	.st4{fill:#72C4BF;}
</style>
<g>
	<defs>
		<rect id="SVGID_1_" x="29.4" y="27.6" width="101.6" height="101.6"/>
	</defs>
	<clipPath id="SVGID_2_">
		<use xlink:href="#SVGID_1_"  style="overflow:visible;"/>
	</clipPath>
	<circle class="st0" cx="80.2" cy="78.4" r="49.3"/>
	<path class="st1" d="M80.2,123c24.7,0,44.7-20,44.7-44.7c0-24.7-20-44.7-44.7-44.7s-44.7,20-44.7,44.7C35.6,103,55.6,123,80.2,123"
		/>
	<circle class="st2" cx="80.2" cy="78.4" r="44.7"/>
</g>
<polygon class="st3" points="63.3,84 70.1,92.1 85.5,79.1 88.8,76.2 97.5,69 90.7,60.9 "/>
<g>
	<path class="st3" d="M102.1,61.7l-3.5-4.1c-0.9-1.1-2.5-1.2-3.6-0.3l-3,2.6l6.8,8l2.9-2.6C102.8,64.4,103,62.8,102.1,61.7"/>
</g>
<polygon class="st4" points="90.9,67.7 68.7,86 68.3,85.6 90.4,67.2 "/>
<polyline class="st3" points="57.7,95.7 68.3,93.2 62,85.6 "/>
</svg>
