<?xml version="1.0" encoding="utf-8"?>
<!-- Generator: Adobe Illustrator 19.2.1, SVG Export Plug-In . SVG Version: 6.00 Build 0)  -->
<svg version="1.1" id="Calque_1" xmlns="http://www.w3.org/2000/svg" xmlns:xlink="http://www.w3.org/1999/xlink" x="0px" y="0px"
	 viewBox="0 0 159.5 156.8" style="enable-background:new 0 0 159.5 156.8;" xml:space="preserve">
<style type="text/css">
	.st0{clip-path:url(#SVGID_2_);fill:none;stroke:#F7A93C;stroke-width:3;}
	.st1{clip-path:url(#SVGID_2_);fill:#F7A93C;}
	.st2{clip-path:url(#SVGID_2_);fill:none;stroke:#F7A93C;stroke-width:1.015;}
	.st3{fill:#FFFFFF;}
	.st4{clip-path:url(#SVGID_4_);fill:#FFFFFF;}
</style>
<g>
	<defs>
		<rect id="SVGID_1_" x="29.4" y="27.4" width="101.6" height="101.6"/>
	</defs>
	<clipPath id="SVGID_2_">
		<use xlink:href="#SVGID_1_"  style="overflow:visible;"/>
	</clipPath>
	<circle class="st0" cx="80.2" cy="78.2" r="49.3"/>
	<path class="st1" d="M80.2,122.8c24.7,0,44.7-20,44.7-44.7c0-24.7-20-44.7-44.7-44.7s-44.7,20-44.7,44.7
		C35.6,102.8,55.6,122.8,80.2,122.8"/>
	<circle class="st2" cx="80.2" cy="78.2" r="44.7"/>
</g>
<polygon class="st3" points="57,79.3 57.6,80.1 57.8,80 57.8,78.7 "/>
<polygon class="st3" points="102.6,71.3 102.6,72.6 103.4,72 102.8,71.1 "/>
<g>
	<defs>
		<rect id="SVGID_3_" x="29.4" y="27.4" width="101.6" height="101.6"/>
	</defs>
	<clipPath id="SVGID_4_">
		<use xlink:href="#SVGID_3_"  style="overflow:visible;"/>
	</clipPath>
	<path class="st4" d="M81,61.9c0,0.4-0.4,0.8-0.8,0.8c-0.4,0-0.8-0.4-0.8-0.8c0-0.4,0.4-0.8,0.8-0.8C80.7,61.1,81,61.5,81,61.9"/>
	<path class="st4" d="M54.8,95.5h25.4v-0.9H73c-0.4,0-0.8-0.4-0.8-0.8S72.5,93,73,93h7.3V92H52.6"/>
	<path class="st4" d="M80.2,92V93h7.3c0.4,0,0.8,0.4,0.8,0.8s-0.4,0.8-0.8,0.8h-7.3v0.9h25.4c1.2,0,2.1-1.5,2.1-3.4v0H80.2z"/>
	<path class="st4" d="M105,88.2V64c0-1.8-1.3-3.2-2.9-3.2H80.2V63h22.4v26.3H80.2v2.1h21.9C103.7,91.4,105,90,105,88.2"/>
	<path class="st4" d="M55.4,88.2c0,1.7,1.3,3.2,2.9,3.2h21.9v-2.1H57.8V63h22.4v-2.1H58.3c-1.6,0-2.9,1.4-2.9,3.2"/>
</g>
</svg>
