<?xml version="1.0" encoding="utf-8"?>
<!-- Generator: Adobe Illustrator 19.2.1, SVG Export Plug-In . SVG Version: 6.00 Build 0)  -->
<svg version="1.1" id="Calque_1" xmlns="http://www.w3.org/2000/svg" xmlns:xlink="http://www.w3.org/1999/xlink" x="0px" y="0px"
	 viewBox="0 0 159.5 156.8" style="enable-background:new 0 0 159.5 156.8;" xml:space="preserve">
<style type="text/css">
	.st0{clip-path:url(#SVGID_2_);fill:none;stroke:#F7A93C;stroke-width:3;}
	.st1{clip-path:url(#SVGID_2_);fill:#F7A93C;}
	.st2{clip-path:url(#SVGID_2_);fill:none;stroke:#F7A93C;stroke-width:1.015;}
	.st3{fill:#FFFFFF;}
</style>
<g>
	<defs>
		<rect id="SVGID_1_" x="29.4" y="27.4" width="101.6" height="101.6"/>
	</defs>
	<clipPath id="SVGID_2_">
		<use xlink:href="#SVGID_1_"  style="overflow:visible;"/>
	</clipPath>
	<circle class="st0" cx="80.2" cy="78.2" r="49.3"/>
	<path class="st1" d="M80.2,122.8c24.7,0,44.7-20,44.7-44.7c0-24.7-20-44.7-44.7-44.7s-44.7,20-44.7,44.7
		C35.6,102.8,55.6,122.8,80.2,122.8"/>
	<circle class="st2" cx="80.2" cy="78.2" r="44.7"/>
</g>
<g>
	<defs>
		<rect id="SVGID_3_" x="29.4" y="27.4" width="101.6" height="101.6"/>
	</defs>
	<clipPath id="SVGID_4_">
		<use xlink:href="#SVGID_3_"  style="overflow:visible;"/>
	</clipPath>
</g>
<g>
	<path class="st3" d="M49.1,93.3c2.4,0,4.4-1.9,4.4-4.3c0-0.4-0.1-0.8-0.3-1.2c5.6-4.5,15.4-12.4,19.9-15.8c0.7,0.5,1.5,0.9,2.5,0.9
		c0.8,0,1.5-0.2,2.1-0.6c2.9,2.4,7.8,6.6,11.2,9.6c0,0.3-0.2,0.5-0.2,0.7c0,2.4,1.9,4.4,4.4,4.4c2.4,0,4.3-1.9,4.3-4.4
		c0-0.4-0.1-0.8-0.2-1.2l11.3-10.2c0.6,0.3,1.2,0.5,2,0.5c2.4,0,4.3-1.9,4.3-4.3c0-2.4-1.9-4.4-4.3-4.4c-2.4,0-4.3,1.9-4.3,4.4
		c0,0.6,0.1,1.1,0.3,1.6c-3.1,2.8-8,7.2-11,10c-0.7-0.4-1.4-0.8-2.3-0.8c-1,0-1.9,0.4-2.7,1c-2.9-2.5-7.5-6.4-10.8-9.2
		c0.2-0.5,0.3-0.9,0.3-1.5c0-2.4-1.9-4.4-4.3-4.4s-4.3,1.9-4.3,4.4c0,0.5,0.1,1,0.3,1.5l-20,15.5c-0.7-0.5-1.5-0.8-2.4-0.8
		c-2.4,0-4.3,1.9-4.3,4.3C44.7,91.4,46.7,93.3,49.1,93.3"/>
</g>
</svg>
