<?xml version="1.0" encoding="utf-8"?>
<!-- Generator: Adobe Illustrator 19.2.1, SVG Export Plug-In . SVG Version: 6.00 Build 0)  -->
<svg version="1.1" id="Calque_1" xmlns="http://www.w3.org/2000/svg" xmlns:xlink="http://www.w3.org/1999/xlink" x="0px" y="0px"
	 viewBox="0 0 159.5 156.8" style="enable-background:new 0 0 159.5 156.8;" xml:space="preserve">
<style type="text/css">
	.st0{clip-path:url(#SVGID_2_);fill:none;stroke:#72C4BF;stroke-width:3;}
	.st1{clip-path:url(#SVGID_2_);fill:#72C4BF;}
	.st2{clip-path:url(#SVGID_2_);fill:none;stroke:#72C4BF;stroke-width:1.015;}
	.st3{clip-path:url(#SVGID_2_);fill:#FFFFFF;}
</style>
<g>
	<defs>
		<rect id="SVGID_1_" x="29.4" y="27.6" width="101.6" height="101.6"/>
	</defs>
	<clipPath id="SVGID_2_">
		<use xlink:href="#SVGID_1_"  style="overflow:visible;"/>
	</clipPath>
	<circle class="st0" cx="80.2" cy="78.4" r="49.3"/>
	<path class="st1" d="M80.2,123c24.7,0,44.7-20,44.7-44.7c0-24.7-20-44.7-44.7-44.7s-44.7,20-44.7,44.7C35.6,103,55.6,123,80.2,123"
		/>
	<circle class="st2" cx="80.2" cy="78.4" r="44.7"/>
	<path class="st3" d="M83.5,75.3c-3,0-5.5-2.4-5.5-5.5c0-3,2.5-5.5,5.5-5.5c3,0,5.5,2.5,5.5,5.5C89,72.8,86.5,75.3,83.5,75.3
		 M69.3,75.3c-2.4,0-4.4-2-4.4-4.4c0-2.4,1.9-4.4,4.4-4.4c2.4,0,4.4,2,4.4,4.4C73.7,73.3,71.7,75.3,69.3,75.3 M95.5,75.3l-6.5,4.4
		c0-1.3-0.6-2.5-1.5-3.3c2.2-1.3,3.7-3.7,3.7-6.5c0-4.2-3.4-7.6-7.6-7.6c-4.2,0-7.6,3.4-7.6,7.6c0,2.1,0.9,4.1,2.3,5.5h-4
		c1-1.2,1.7-2.7,1.7-4.4c0-3.6-2.9-6.5-6.5-6.5c-3.6,0-6.5,2.9-6.5,6.5c0,2,0.9,3.7,2.3,4.9c-1.3,0.7-2.3,2.2-2.3,3.8v8.7
		c0,2.4,2,4.4,4.4,4.4h17.5c2.4,0,4.4-1.9,4.4-4.4l6.5,4.4c1.2,0,2.2-1,2.2-2.2V77.4C97.7,76.2,96.7,75.3,95.5,75.3"/>
</g>
</svg>
