<?xml version="1.0" encoding="utf-8"?>
<!-- Generator: Adobe Illustrator 19.2.1, SVG Export Plug-In . SVG Version: 6.00 Build 0)  -->
<svg version="1.1" id="Calque_3" xmlns="http://www.w3.org/2000/svg" xmlns:xlink="http://www.w3.org/1999/xlink" x="0px" y="0px"
	 viewBox="0 0 159.5 156.8" style="enable-background:new 0 0 159.5 156.8;" xml:space="preserve">
<style type="text/css">
	.st0{fill:#D46548;}
	.st1{fill:#FFFFFF;}
</style>
<rect x="-17" y="-22.1" class="st0" width="196" height="191"/>
<path class="st1" d="M100.8,81.4c-2,0-3.7,0.5-5.1,1.2c-0.5-1.1-1.1-2-1.2-2.7c-0.1-0.8-0.2-1.3-0.1-2.2c0.1-1,0.7-2.3,0.7-2.4
	c0-0.1-0.1-0.6-1.3-0.6c-1.1,0-2.1,0.2-2.2,0.5s-0.3,1-0.5,1.7c-0.2,1-2.3,4.7-3.5,6.7c-0.4-0.8-0.7-1.4-0.8-2
	c-0.1-0.8-0.2-1.3-0.1-2.2c0.1-1,0.7-2.3,0.7-2.4c0-0.1-0.1-0.6-1.3-0.6c-1.1,0-2.1,0.2-2.2,0.5s-0.2,1-0.5,1.7
	c-0.2,0.7-3,6.9-3.7,8.5c-0.4,0.8-0.7,1.5-0.9,1.9c-0.2,0.4,0,0,0,0.1c-0.2,0.4-0.3,0.6-0.3,0.6v0c-0.2,0.3-0.3,0.5-0.4,0.5
	c-0.1,0-0.2-0.7,0-1.8c0.4-2.1,1.4-5.5,1.4-5.6c0-0.1,0.2-0.6-0.6-0.9C78,81.5,77.7,82,77.6,82c-0.1,0-0.1,0.2-0.1,0.2
	s0.9-3.8-1.7-3.8c-1.6,0-3.9,1.8-5,3.4c-0.7,0.4-2.2,1.2-3.8,2.1c-0.6,0.3-1.2,0.7-1.8,1L65,84.8c-3.2-3.4-9-5.8-8.8-10.3
	c0.1-1.7,0.7-6,11.3-11.3c8.7-4.3,15.6-3.1,16.9-0.5c1.7,3.8-3.7,10.8-12.7,11.8c-3.4,0.4-5.2-0.9-5.7-1.4c-0.5-0.5-0.5-0.5-0.7-0.4
	c-0.3,0.2-0.1,0.6,0,0.9c0.3,0.7,1.4,1.9,3.3,2.6c1.7,0.5,5.7,0.8,10.6-1c5.5-2.1,9.7-8,8.5-12.9c-1.3-5-9.6-6.6-17.4-3.9
	c-4.7,1.7-9.7,4.3-13.4,7.7c-4.3,4-5,7.6-4.7,9c1,5.2,8.2,8.6,11.1,11.2c-0.1,0.1-0.3,0.2-0.4,0.2c-1.4,0.7-6.9,3.6-8.3,6.6
	c-1.6,3.4,0.2,5.9,1.4,6.2c3.7,1,7.5-0.8,9.6-3.9c2-3.1,1.8-7,0.9-8.8l0-0.1l1.1-0.7c0.7-0.4,1.5-0.8,2.1-1.2
	c-0.4,1-0.6,2.1-0.7,3.8c-0.2,2,0.6,4.5,1.7,5.5c0.5,0.4,1,0.4,1.4,0.4c1.2,0,1.8-1,2.4-2.2c0.8-1.5,1.4-3.2,1.4-3.2
	s-0.8,4.6,1.4,4.6c0.8,0,1.7-1.1,2-1.6v0c0,0,0,0,0.1-0.1c0-0.1,0.1-0.1,0.1-0.2v0c0.3-0.6,1.1-1.9,2.2-4.1c1.4-2.8,2.8-6.3,2.8-6.3
	s0.1,0.9,0.5,2.3c0.2,0.8,0.8,1.8,1.2,2.7c-0.3,0.5-0.5,0.7-0.5,0.7l0,0c-0.3,0.4-0.6,0.7-0.9,1.1c-1.1,1.4-2.5,2.9-2.7,3.3
	c-0.2,0.5-0.2,0.9,0.2,1.2c0.3,0.2,0.8,0.3,1.4,0.2c1-0.1,1.7-0.3,2.1-0.5c0.6-0.2,1.2-0.5,1.8-0.9c1.1-0.8,1.8-2,1.7-3.5
	c0-0.9-0.3-1.7-0.7-2.5c0.1-0.1,0.2-0.3,0.3-0.4c1.8-2.6,3.1-5.4,3.1-5.4s0.1,0.9,0.5,2.3c0.2,0.7,0.6,1.5,1,2.3
	c-1.6,1.3-2.7,2.9-3,3.9c-0.7,1.9-0.1,2.7,0.8,2.9c0.4,0.1,1.1-0.1,1.5-0.3c0.6-0.2,1.3-0.5,1.9-1c1.1-0.8,2.2-2,2.1-3.5
	c0-0.7-0.2-1.4-0.5-2.1c1.4-0.6,3.2-0.9,5.5-0.6c4.9,0.6,5.9,3.7,5.7,4.9c-0.2,1.3-1.2,2-1.6,2.2c-0.3,0.2-0.5,0.3-0.4,0.4
	c0,0.2,0.2,0.2,0.5,0.2c0.4-0.1,2.6-1.1,2.7-3.4C108.8,84.7,105.9,81.3,100.8,81.4L100.8,81.4z M62.7,94.2c-1.6,1.8-3.9,2.5-4.9,1.9
	c-1.1-0.6-0.6-3.2,1.4-5.1c1.2-1.2,2.8-2.2,3.8-2.9c0.2-0.1,0.6-0.4,1-0.6c0.1,0,0.1-0.1,0.1-0.1c0.1,0,0.2-0.1,0.3-0.2
	C65.1,90,64.4,92.3,62.7,94.2L62.7,94.2z M74.6,86.1c-0.6,1.4-1.8,4.9-2.5,4.7c-0.6-0.2-1-2.9-0.1-5.5c0.4-1.3,1.4-2.9,1.9-3.6
	c0.9-1,1.9-1.3,2.1-0.9C76.3,81.4,75,85.2,74.6,86.1z M84.4,90.8c-0.2,0.1-0.5,0.2-0.6,0.1c-0.1,0,0.1-0.2,0.1-0.2s1.2-1.3,1.7-1.9
	c0.3-0.4,0.6-0.8,1-1.2v0.1C86.7,89.3,85.1,90.4,84.4,90.8L84.4,90.8z M92,89.1c-0.2-0.1-0.2-0.5,0.4-1.8c0.2-0.5,0.8-1.4,1.7-2.2
	c0.1,0.3,0.2,0.7,0.2,1C94.3,88,92.9,88.8,92,89.1z"/>
</svg>
