<?xml version="1.0" encoding="utf-8"?>
<!-- Generator: Adobe Illustrator 19.2.1, SVG Export Plug-In . SVG Version: 6.00 Build 0)  -->
<svg version="1.1" id="Calque_2" xmlns="http://www.w3.org/2000/svg" xmlns:xlink="http://www.w3.org/1999/xlink" x="0px" y="0px"
	 viewBox="0 0 159.5 156.8" style="enable-background:new 0 0 159.5 156.8;" xml:space="preserve">
<style type="text/css">
	.st0{fill:#F6A83C;}
	.st1{fill:none;}
	.st2{enable-background:new    ;}
	.st3{fill:#FFFFFF;}
</style>
<rect x="-11" y="-13.1" class="st0" width="185" height="182.9"/>
<rect x="50.3" y="68.3" class="st1" width="76.7" height="26.7"/>
<g class="st2">
	<path class="st3" d="M67.2,70.8c0.2,0.2,0.3,0.4,0.3,0.7c0,0.4-0.1,0.7-0.4,0.9c-0.2,0.2-0.6,0.3-1.1,0.2c-1.1-0.1-2-0.1-2.7-0.2
		c-0.6,0-1.5-0.1-2.5-0.1c-0.5,2.3-0.9,4.7-1.3,7c-0.1,0.9-0.3,1.9-0.4,3c-0.2,1.1-0.3,2-0.3,2.7c0,0.4-0.2,0.7-0.5,0.8
		c-0.3,0.2-0.6,0.3-1,0.3c-0.4,0-0.7-0.1-1-0.3c-0.2-0.2-0.3-0.5-0.3-0.8c0-0.3,0-0.8,0.1-1.5c0.1-0.7,0.2-1.4,0.3-2.2
		c0.1-0.8,0.2-1.4,0.3-2c0.1-1,0.3-1.9,0.5-2.9c0.2-1,0.4-1.8,0.5-2.7c0-0.2,0.1-0.4,0.1-0.7c0.1-0.2,0.1-0.5,0.2-0.8
		c-1.2,0-2.2,0.1-2.9,0.3c-0.7,0.2-1.2,0.4-1.5,0.7c-0.3,0.3-0.4,0.7-0.4,1.1c0,0.4,0.1,0.8,0.4,1.2c0.1,0.1,0.1,0.2,0.1,0.3
		c0,0.2-0.1,0.5-0.4,0.7C53,76.9,52.7,77,52.4,77c-0.2,0-0.4-0.1-0.5-0.2c-0.3-0.2-0.5-0.5-0.6-0.9C51.1,75.5,51,75,51,74.5
		c0-1.1,0.4-1.9,1.1-2.6c0.7-0.7,1.8-1.1,3.2-1.4c1.4-0.3,3.3-0.5,5.5-0.5c1.4,0,2.5,0,3.3,0.1c0.8,0.1,1.6,0.1,2.2,0.2
		C66.7,70.4,67,70.6,67.2,70.8z"/>
	<path class="st3" d="M89.3,78.1c0.1,0.1,0.2,0.3,0.2,0.5c0,0.3-0.1,0.6-0.3,0.9c-0.2,0.3-0.5,0.4-0.9,0.4c-1,0-1.9-0.1-2.7-0.2
		c-0.9,1.9-2,3.5-3.2,4.7c-1.2,1.2-2.5,1.9-3.7,1.9c-1.1,0-2-0.6-2.5-1.8c-0.6-1.2-0.9-2.8-1-4.8c-0.8,2.2-1.6,3.8-2.6,4.9
		c-1,1.1-2,1.6-3,1.6c-1.2,0-2.1-0.8-2.8-2.3s-0.9-3.5-0.9-6.1c0-1.9,0.2-3.9,0.5-6.1c0.1-0.6,0.3-1.1,0.5-1.3S67.5,70,68,70
		c0.4,0,0.7,0.1,0.9,0.2c0.2,0.2,0.3,0.5,0.3,0.9c0,0.1,0,0.3,0,0.5c-0.4,2.6-0.6,4.8-0.6,6.6c0,1.7,0.1,3,0.4,3.9
		c0.3,0.9,0.7,1.4,1.2,1.4c0.4,0,1-0.5,1.6-1.4c0.6-0.9,1.3-2.3,1.9-4.1c0.6-1.8,1.1-4,1.6-6.5c0.1-0.6,0.3-1,0.6-1.2
		c0.3-0.2,0.6-0.3,1.1-0.3c0.4,0,0.7,0.1,0.9,0.3c0.2,0.2,0.3,0.4,0.3,0.8c0,0.2,0,0.4,0,0.5c-0.4,2.1-0.5,4.1-0.5,6.2
		c0,1.4,0,2.5,0.1,3.4c0.1,0.8,0.3,1.5,0.6,1.9c0.3,0.4,0.7,0.7,1.2,0.7c0.6,0,1.3-0.5,2-1.4c0.7-0.9,1.4-2.1,2.1-3.4
		c-0.8-0.5-1.4-1.1-1.7-1.9c-0.4-0.8-0.6-1.6-0.6-2.7c0-1,0.2-1.8,0.5-2.5s0.7-1.2,1.3-1.5c0.5-0.3,1.1-0.5,1.8-0.5
		c0.8,0,1.5,0.3,1.9,0.9c0.5,0.6,0.7,1.4,0.7,2.4c0,1.4-0.3,3-0.9,4.8c0.6,0.1,1.4,0.2,2.3,0.2C88.9,77.9,89.1,78,89.3,78.1z
		 M84.2,76.9c0.5-1.4,0.7-2.6,0.7-3.5c0-0.5-0.1-0.9-0.2-1.2c-0.1-0.2-0.3-0.4-0.6-0.4c-0.3,0-0.6,0.2-0.8,0.6
		c-0.2,0.4-0.3,1-0.3,1.7C83,75.4,83.4,76.3,84.2,76.9z"/>
	<path class="st3" d="M96.9,70.4c0.2,0.2,0.3,0.4,0.3,0.6c0,0.4-0.1,0.7-0.4,1s-0.6,0.4-1.1,0.4c-0.7,0-1.3,0-1.7,0
		c0,0.2-0.1,0.8-0.3,2.1c-0.2,1.4-0.4,2.2-0.4,2.5L93,79.4c-0.3,1.9-0.5,3.4-0.7,4.7c0.3,0,0.6,0,1.1,0c0.7,0,1.1,0.1,1.4,0.3
		s0.4,0.4,0.4,0.8c0,0.3-0.1,0.6-0.4,0.8c-0.3,0.2-0.6,0.3-1.1,0.3c-0.3,0-0.8,0-1.5,0c-0.6,0-1.1,0-1.3,0c-0.8,0-1.7,0.1-2.6,0.2
		c-0.4,0.1-0.7,0.1-0.9,0.1c-0.3,0-0.5-0.1-0.7-0.2c-0.2-0.2-0.3-0.4-0.3-0.7c0-0.5,0.2-0.8,0.6-1.1c0.4-0.3,1-0.4,1.7-0.4l0.9,0
		l0.1-0.4c0.3-2,0.5-3.5,0.7-4.3l0.4-2.5c0.3-1.5,0.5-3,0.7-4.5l-1.6,0c-0.5,0-0.8-0.1-0.9-0.2c-0.2-0.1-0.3-0.4-0.3-0.6
		c0-0.9,0.6-1.3,1.9-1.4c0.6,0,1.3,0,2.1,0l3.5,0C96.4,70.1,96.7,70.2,96.9,70.4z"/>
	<path class="st3" d="M113.4,82.2c0.1,0.2,0.1,0.4,0.1,0.6c0,0.3,0,0.5-0.1,0.7c-0.1,0.2-0.2,0.3-0.4,0.4c-0.7,0.5-1.9,1.3-3.6,2.4
		c-0.5,2.6-1.1,4.7-1.9,6.2c-0.8,1.5-1.8,2.3-3,2.3c-0.6,0-1.2-0.2-1.6-0.6s-0.6-0.9-0.6-1.6c0-0.6,0.1-1.2,0.4-1.8
		c0.3-0.6,0.8-1.3,1.5-2.1c0.7-0.8,1.8-1.7,3.1-2.7l0.1-0.4c-1,0.4-2,0.6-2.9,0.6c-1.4,0-2.7-0.3-3.7-0.8c-1.1-0.6-1.9-1.3-2.5-2.3
		c-0.6-1-0.9-2.2-0.9-3.5c0-1.9,0.4-3.5,1.1-5c0.7-1.4,1.7-2.6,2.9-3.3c1.2-0.8,2.6-1.2,4.2-1.2c1.5,0,2.6,0.3,3.3,1
		c0.7,0.7,1.1,1.6,1.1,2.7c0,0.7-0.1,1.3-0.4,1.8c-0.3,0.4-0.7,0.7-1.2,0.7c-0.3,0-0.6-0.1-0.8-0.2c-0.2-0.2-0.3-0.4-0.3-0.7
		c0-0.1,0-0.3,0.1-0.6c0.1-0.4,0.1-0.6,0.1-0.8c0-0.5-0.2-0.9-0.5-1.2s-0.9-0.4-1.6-0.4c-0.9,0-1.8,0.3-2.6,0.8
		c-0.8,0.5-1.4,1.3-1.9,2.4s-0.7,2.3-0.7,3.8c0,1.5,0.4,2.7,1.2,3.5c0.8,0.8,2,1.2,3.6,1.2c0.9,0,1.8-0.2,2.7-0.6L108,81H106
		c-0.4,0-0.6-0.1-0.8-0.3c-0.2-0.2-0.3-0.5-0.3-0.8c0-0.4,0.1-0.6,0.3-0.8c0.2-0.2,0.4-0.3,0.8-0.3h3.6c0.3,0,0.5,0.1,0.7,0.3
		s0.3,0.4,0.2,0.8c0,0.4-0.2,1.3-0.4,2.8l-0.2,1.4c1-0.8,1.9-1.4,2.8-2c0.2-0.1,0.3-0.2,0.4-0.2C113.2,81.9,113.3,82,113.4,82.2z
		 M105.9,91.8c0.4-0.7,0.8-2,1.1-3.6c-1,0.8-1.7,1.6-2.1,2.2c-0.4,0.7-0.6,1.3-0.6,1.8c0,0.5,0.2,0.7,0.5,0.7
		C105.1,92.9,105.5,92.6,105.9,91.8z"/>
</g>
</svg>
